
<svg width="30px" height="30px" viewBox="0 0 30 30" version="1.1" xmlns="http://www.w3.org/2000/svg" xmlns:xlink="http://www.w3.org/1999/xlink">
    <g id="页面-1" stroke="none" stroke-width="1" fill="none" fill-rule="evenodd">
        <g id="首页" transform="translate(-310.000000, -221.000000)">
            <g id="编组-13" transform="translate(310.000000, 221.000000)">
                <rect id="矩形" fill="#000000" fill-rule="nonzero" opacity="0" x="2" y="2" width="26" height="26"></rect>
                <path d="M4.4662168,11.4993945 C5.1830957,11.4489434 5.80613086,11.9827051 5.8680332,12.695293 L5.86973438,12.7169258 C6.17020703,16.9785645 8.42448828,19.7362656 12.8319453,21.174543 L12.9661602,21.2177578 C13.5047207,21.3885605 13.8728848,21.8836777 13.8826094,22.4464102 L13.8828125,22.4692363 L13.8828125,25.6967148 C13.8828125,26.4218711 13.294334,27.0097656 12.568416,27.0097656 C11.8497598,27.0097656 11.2658262,26.4336016 11.2541973,25.7184238 L11.2540449,25.6967148 L11.2540195,23.403459 L11.2074023,23.3860156 C6.36794922,21.5497148 3.66361914,18.0577422 3.25967969,13.0631016 L3.24744141,12.9014648 C3.19643164,12.1780859 3.74210156,11.5503535 4.4662168,11.4993945 Z" id="路径" fill="#333333" fill-rule="nonzero"></path>
                <path d="M19.0755644,3.95312401 C21.8924394,3.95312401 24.0723264,6.2314685 24.0723264,9.17480904 C24.0723264,12.1692528 21.9447471,14.673071 18.5458801,17.9892416 L18.2979773,18.2304076 L18.0457343,18.4744988 L17.9179934,18.5976972 L17.6593375,18.8463996 L17.3965034,19.0983025 L16.9945601,19.4824888 L16.304811,20.140327 L15.7749323,20.6367683 C15.3316934,21.0520984 14.6705435,21.0584648 14.2205677,20.6559364 L14.1996446,20.6367683 L13.669766,20.140327 L12.8450533,19.3535779 L12.5781059,19.0983369 L12.1854257,18.7216527 C12.1424708,18.6803557 12.0995342,18.6390372 12.056616,18.5976972 L11.802203,18.3520919 C11.7601625,18.3114158 11.7183163,18.2708429 11.6765997,18.2304076 L11.4286968,17.9892416 C8.02989468,14.6731055 5.90228301,12.1692528 5.90228301,9.17480904 C5.90228301,6.2314685 8.08216999,3.95312401 10.8990449,3.95312401 C12.4889399,3.95312401 13.9874017,4.71254923 14.9873047,5.94697655 C15.9871429,4.71258364 17.4857018,3.95312401 19.0755644,3.95312401 Z" id="路径" fill="#12A86D" fill-rule="nonzero" opacity="0.268335978"></path>
                <path d="M25.5845645,11.5247852 C24.8676855,11.474334 24.2446504,12.0080957 24.182748,12.7206836 L24.1810469,12.7423164 C23.8805742,17.0039551 21.626293,19.7616562 17.2188359,21.1999336 L17.0846211,21.2431484 C16.5460605,21.4139512 16.1778965,21.9090684 16.1681719,22.4718008 L16.1679687,22.494627 L16.1679687,25.7221055 C16.1679687,26.4472617 16.7564473,27.0351562 17.4823652,27.0351562 C18.2010215,27.0351562 18.7849551,26.4589922 18.796584,25.7438145 L18.7967363,25.7221055 L18.7967617,23.4288496 L18.8433789,23.4114062 C23.682832,21.5751055 26.3871621,18.0831328 26.7911016,13.0884922 L26.8033398,12.9268555 C26.8543496,12.2034766 26.3086797,11.5757441 25.5845645,11.5247852 L25.5845645,11.5247852 Z" id="路径" fill="#333333" fill-rule="nonzero"></path>
                <path d="M18.1922363,5.68164063 C20.4004844,5.68164063 22.109375,7.36265234 22.109375,9.5343125 C22.109375,11.7436777 20.4414902,13.5910488 17.776998,16.037791 L17.5826582,16.2157285 L17.384916,16.3958242 L17.2847754,16.4867227 L17.0820059,16.6702207 L16.8759609,16.8560801 L16.5608633,17.139541 L16.0201445,17.6249082 L15.6047539,17.9911934 C15.2572832,18.2976328 14.7389844,18.3023301 14.3862324,18.0053359 L14.3698301,17.9911934 L13.9544395,17.6249082 L13.307918,17.0444277 L13.0986484,16.8561055 L12.7908125,16.5781797 C12.7571386,16.5477099 12.7234791,16.5172242 12.689834,16.4867227 L12.4903906,16.3055098 C12.4574336,16.275498 12.4246289,16.2455625 12.3919258,16.2157285 L12.1975859,16.037791 C9.53314453,13.5910742 7.86523438,11.7436777 7.86523438,9.5343125 C7.86523438,7.36265234 9.574125,5.68164063 11.782373,5.68164063 C13.028748,5.68164063 14.2034453,6.24196094 14.9873047,7.15274805 C15.7711133,6.24198633 16.9458867,5.68164063 18.1922363,5.68164063 Z" id="路径" fill="#12A86D" fill-rule="nonzero"></path>
                <rect id="矩形" x="0" y="0" width="30" height="30"></rect>
            </g>
        </g>
    </g>
</svg>