
<svg width="31px" height="31px" viewBox="0 0 31 31" version="1.1" xmlns="http://www.w3.org/2000/svg" xmlns:xlink="http://www.w3.org/1999/xlink">
    <g id="页面-1" stroke="none" stroke-width="1" fill="none" fill-rule="evenodd">
        <g id="首页" transform="translate(-139.000000, -220.000000)">
            <g id="编组-11" transform="translate(139.000000, 220.000000)">
                <polygon id="路径-51" fill="#9DE0CA" opacity="0.303958711" points="5.17482942 26.15625 6.25856414 15.5 24.658248 15.5 24.658248 26.15625"></polygon>
                <g id="编组-4" fill-rule="nonzero">
                    <rect id="矩形" fill="#000000" opacity="0" x="0" y="0" width="31" height="31"></rect>
                    <path d="M23.25,8.71875 C23.7850259,8.71875 24.21875,9.15247415 24.21875,9.6875 L24.21875,12.59375 L27.125,12.59375 C27.6600259,12.59375 28.09375,13.0274741 28.09375,13.5625 L28.09375,25.1875 C28.09375,25.7225259 27.6600259,26.15625 27.125,26.15625 L24.21875,26.15625 C24.21875,21.3410173 20.3152327,17.4375 15.5,17.4375 C10.6847673,17.4375 6.78125,21.3410173 6.78125,26.15625 L3.875,26.15625 C3.33997415,26.15625 2.90625,25.7225259 2.90625,25.1875 L2.90625,13.5625 C2.90625,13.0274741 3.33997415,12.59375 3.875,12.59375 L6.78125,12.59375 L6.78125,9.6875 C6.78125,9.15247415 7.21497415,8.71875 7.75,8.71875 C8.28502585,8.71875 8.71875,9.15247415 8.71875,9.6875 L8.71875,12.59375 L14.53125,12.59375 L14.53125,9.6875 C14.53125,9.15247415 14.9649741,8.71875 15.5,8.71875 C16.0350259,8.71875 16.46875,9.15247415 16.46875,9.6875 L16.46875,12.59375 L22.28125,12.59375 L22.28125,9.6875 C22.28125,9.15247415 22.7149741,8.71875 23.25,8.71875 Z" id="路径" fill="#1DB080"></path>
                    <path d="M27.125,4.84375 C27.6600259,4.84375 28.09375,5.27747415 28.09375,5.8125 L28.09375,6.78125 C28.09375,7.31627585 27.6600259,7.75 27.125,7.75 L3.875,7.75 C3.33997415,7.75 2.90625,7.31627585 2.90625,6.78125 L2.90625,5.8125 C2.90625,5.27747415 3.33997415,4.84375 3.875,4.84375 L27.125,4.84375 Z" id="路径" fill="#434343"></path>
                </g>
                <path d="M6.78125,26.15625 C7.38990963,20.34375 10.2961596,17.4375 15.5,17.4375 C20.7038404,17.4375 23.6100904,20.34375 24.21875,26.15625" id="路径-52" stroke="#434343" stroke-width="2"></path>
                <rect id="矩形" x="0.5" y="0" width="30" height="30"></rect>
            </g>
        </g>
    </g>
</svg>