<svg t="1634611243562" class="icon" viewBox="0 0 1024 1024" version="1.1" xmlns="http://www.w3.org/2000/svg" p-id="6090" width="32" height="32"><path d="M512 51.2a460.8 460.8 0 1 0 460.8 460.8 460.8 460.8 0 0 0-460.8-460.8z m0 870.4a409.6 409.6 0 1 1 409.6-409.6 409.6 409.6 0 0 1-409.6 409.6zM395.43808 392.59648l-112.34816 345.7536 345.7536-113.42848 112.34816-344.67328z m116.70016 175.616a57.8048 57.8048 0 1 1 57.8048-57.8048 58.1888 58.1888 0 0 1-57.8048 57.8048z m0 0" p-id="6091" fill="#2c2c2c"></path></svg>