
<svg width="36px" height="36px" viewBox="0 0 36 36" version="1.1" xmlns="http://www.w3.org/2000/svg" xmlns:xlink="http://www.w3.org/1999/xlink">
    <g id="页面-1" stroke="none" stroke-width="1" fill="none" fill-rule="evenodd">
        <g id="公告信息" transform="translate(-16.000000, -110.000000)">
            <g id="编组" transform="translate(16.000000, 110.000000)">
                <circle id="椭圆形" fill-opacity="0.16" fill="#12A86D" cx="18" cy="18" r="18"></circle>
                <g id="公告" transform="translate(9.000000, 9.000000)" fill-rule="nonzero">
                    <rect id="矩形" fill="#000000" opacity="0" x="0" y="0" width="20" height="20"></rect>
                    <path d="M2.96875,11.96875 L6.8125,11.96875 L9.3125,19.65625 L5.84375,19.65625 L2.96875,11.96875 Z M2.34375,2.625 L10.375,2.625 C10.375,2.625 13,0.5625 14.21875,0.28125 C15.4375,-8.32667268e-17 16.21875,0.59375 16.21875,1.09375 L16.21875,12.6875 C16.21875,12.6875 15.75,14.1875 13.5625,13.09375 C11.5625,11.90625 10.34375,10.75 10.34375,10.75 L2.6875,10.75 C2.6875,10.75 1.09375,11.1875 1.09375,9.21875 L1.09375,4.09375 C1.125,4.09375 1,2.625 2.34375,2.625 Z M17.34375,5.3125 L17.34375,9.1875 C17.34375,9.1875 17.84375,9.5 18.53125,8.84375 C18.53125,8.84375 19.1875,8.21875 19.1875,7.28125 C19.25,6.75 19.09375,6.1875 18.53125,5.6875 C18.53125,5.6875 17.9375,5.15625 17.34375,5.3125 L17.34375,5.3125 Z" id="形状" fill="#12A86D"></path>
                </g>
            </g>
        </g>
    </g>
</svg>