<svg t="1634536856738" class="icon" viewBox="0 0 1024 1024" version="1.1" xmlns="http://www.w3.org/2000/svg" p-id="4029" width="32" height="32"><path d="M810.666667 85.333333a128 128 0 0 1 127.786666 120.490667L938.666667 213.333333v426.666667a128 128 0 0 1-120.490667 127.786667L810.666667 768h-220.672a42.666667 42.666667 0 0 0-25.941334 8.789333l-4.224 3.712-145.664 145.664a42.666667 42.666667 0 0 1-63.872-56.32l3.541334-4.010666 145.664-145.664a128 128 0 0 1 82.048-37.205334l8.448-0.298666H810.666667a42.666667 42.666667 0 0 0 42.368-37.674667L853.333333 640V213.333333a42.666667 42.666667 0 0 0-37.674666-42.368L810.666667 170.666667H213.333333a42.666667 42.666667 0 0 0-42.368 37.674666L170.666667 213.333333v426.666667a42.666667 42.666667 0 0 0 37.674666 42.368L213.333333 682.666667h85.333334a42.666667 42.666667 0 0 1 4.992 85.034666L298.666667 768H213.333333a128 128 0 0 1-127.786666-120.490667L85.333333 640V213.333333a128 128 0 0 1 120.490667-127.786666L213.333333 85.333333h597.333334zM362.666667 384a42.666667 42.666667 0 1 1 0 85.333333h-42.666667a42.666667 42.666667 0 0 1 0-85.333333h42.666667z m170.666666 0a42.666667 42.666667 0 0 1 0 85.333333h-42.666666a42.666667 42.666667 0 0 1 0-85.333333h42.666666z m170.666667 0a42.666667 42.666667 0 0 1 0 85.333333h-42.666667a42.666667 42.666667 0 0 1 0-85.333333h42.666667z" p-id="4030" fill="#12A86D"></path></svg>