<svg t="1637660790534" class="icon" viewBox="0 0 1024 1024" version="1.1" xmlns="http://www.w3.org/2000/svg" p-id="11627" width="32" height="32"><path d="M511.12 880c-12.28 0-24.57-4.69-33.94-14.06l-320-320c-18.74-18.75-18.74-49.14 0-67.88l320-320c18.75-18.74 49.14-18.74 67.88 0 18.74 18.75 18.74 49.14 0 67.88L259 512l286.06 286.06c18.74 18.75 18.74 49.14 0 67.88-9.37 9.37-21.65 14.06-33.94 14.06z" fill="#2c2c2c" p-id="11628"></path><path d="M831.12 880c-12.28 0-24.57-4.69-33.94-14.06l-320-320c-18.74-18.75-18.74-49.14 0-67.88l320-320c18.75-18.74 49.14-18.74 67.88 0 18.74 18.75 18.74 49.14 0 67.88L579 512l286.06 286.06c18.74 18.75 18.74 49.14 0 67.88-9.37 9.37-21.65 14.06-33.94 14.06z" fill="#2c2c2c" p-id="11629"></path></svg>