<?xml version="1.0" encoding="UTF-8"?>
<svg width="44px" height="44px" viewBox="0 0 44 44" version="1.1" xmlns="http://www.w3.org/2000/svg" xmlns:xlink="http://www.w3.org/1999/xlink">
    <title>编组 3</title>
    <defs>
        <linearGradient x1="100%" y1="89.968726%" x2="0%" y2="12.3774022%" id="linearGradient-1">
            <stop stop-color="#07B177" offset="0%"></stop>
            <stop stop-color="#45C164" offset="100%"></stop>
        </linearGradient>
        <filter x="-54.5%" y="-54.5%" width="209.1%" height="209.1%" filterUnits="objectBoundingBox" id="filter-2">
            <feOffset dx="0" dy="2" in="SourceAlpha" result="shadowOffsetOuter1"></feOffset>
            <feGaussianBlur stdDeviation="2" in="shadowOffsetOuter1" result="shadowBlurOuter1"></feGaussianBlur>
            <feColorMatrix values="0 0 0 0 0   0 0 0 0 0   0 0 0 0 0  0 0 0 0.16 0" type="matrix" in="shadowBlurOuter1" result="shadowMatrixOuter1"></feColorMatrix>
            <feMerge>
                <feMergeNode in="shadowMatrixOuter1"></feMergeNode>
                <feMergeNode in="SourceGraphic"></feMergeNode>
            </feMerge>
        </filter>
    </defs>
    <g id="页面-1" stroke="none" stroke-width="1" fill="none" fill-rule="evenodd">
        <g id="首页" transform="translate(-55.000000, -124.000000)">
            <g id="编组-3" transform="translate(55.000000, 124.000000)">
                <circle id="椭圆形" fill="url(#linearGradient-1)" cx="22" cy="22" r="22"></circle>
                <g id="路线" filter="url(#filter-2)" transform="translate(22.000000, 22.000000) rotate(90.000000) translate(-22.000000, -22.000000) translate(11.000000, 11.000000)" fill-rule="nonzero">
                    <rect id="矩形" fill="#000000" opacity="0" x="0" y="0" width="22" height="22"></rect>
                    <path d="M21.6621429,3.05642857 L19.1321429,0.530357137 C18.6784518,0.103781953 17.9711911,0.103781953 17.5175,0.530357137 L14.9914286,3.06035714 C14.7767139,3.27415333 14.656011,3.56467497 14.656011,3.86767857 C14.656011,4.17068216 14.7767139,4.46120381 14.9914286,4.675 C15.2052248,4.88971462 15.4957464,5.01041754 15.79875,5.01041754 C16.1017536,5.01041754 16.3922752,4.88971462 16.6060714,4.675 L17.2228571,4.05821429 L17.2228571,16.6296429 C17.2593501,17.5537496 16.7871478,18.4237141 15.992377,18.8966247 C15.1976061,19.3695353 14.207751,19.3695353 13.4129802,18.8966247 C12.6182093,18.4237141 12.146007,17.5537496 12.1825,16.6296429 L12.1825,5.70035714 C12.1080363,3.09279561 9.97273168,1.01759813 7.36410715,1.01759813 C4.75548262,1.01759813 2.62017804,3.09279561 2.54571429,5.70035714 L2.54571429,17.9142857 L1.96428571,17.3132143 C1.51732955,16.8640885 0.790911574,16.8623296 0.341785733,17.3092857 C-0.107340108,17.7562419 -0.109099,18.4826599 0.337857137,18.9317857 L2.86785714,21.4578571 C3.3140681,21.9029077 4.03628904,21.9029077 4.4825,21.4578571 L7.00857143,18.9278571 C7.41646758,18.4760335 7.39879505,17.7838319 6.9683744,17.3534113 C6.53795376,16.9229907 5.84575219,16.9053181 5.39392857,17.3132143 L4.83607143,17.875 L4.83607143,5.69642857 C4.8896789,4.33470316 6.0091841,3.25840272 7.37196428,3.25840272 C8.73474447,3.25840272 9.85424966,4.33470316 9.90785714,5.69642857 L9.90785714,16.6139286 C9.98219689,19.212899 12.1105023,21.2811978 14.7105357,21.2811978 C17.3105692,21.2811978 19.4388745,19.212899 19.5132143,16.6139286 L19.5132143,4.12892857 L20.0357143,4.67107143 C20.4875379,5.07896758 21.1797395,5.06129505 21.6101601,4.6308744 C22.0405808,4.20045376 22.0582533,3.50825219 21.6503571,3.05642857 L21.6621429,3.05642857 Z" id="路径" fill="#FFFFFF"></path>
                </g>
            </g>
        </g>
    </g>
</svg>