<svg t="1634872034277" class="icon" viewBox="0 0 1024 1024" version="1.1" xmlns="http://www.w3.org/2000/svg" p-id="7851" width="32" height="32"><path d="M738.27 157.73C677.83 97.29 597.47 64 512 64c-85.48 0-165.83 33.29-226.27 93.73C225.29 218.17 192 298.52 192 384c0 60.92 17.2 120.18 49.73 171.38 28.01 44.08 66.21 80.53 111.27 106.36V768c0 52.93 43.07 96 96 96h128c52.93 0 96-43.07 96-96V660.58a320.81 320.81 0 0 0 53.47-39.1c13.11-11.85 14.14-32.08 2.29-45.2-11.85-13.11-32.08-14.14-45.2-2.29-17.17 15.51-36.32 28.62-56.92 38.95a32.004 32.004 0 0 0-17.65 28.6V768c0 17.64-14.36 32-32 32H449c-17.65 0-32-14.36-32-32V642.54c0-12.19-6.93-23.33-17.87-28.71C310.84 570.37 256 482.31 256 384c0-141.16 114.84-256 256-256s256 114.84 256 256c0 19.19-2.13 38.31-6.33 56.83-3.91 17.24 6.9 34.38 24.14 38.28 17.23 3.9 34.38-6.9 38.28-24.14 5.25-23.16 7.91-47.03 7.91-70.97 0-85.48-33.29-165.83-93.73-226.27zM639.5 896h-255c-17.67 0-32 14.33-32 32s14.33 32 32 32h255c17.67 0 32-14.33 32-32s-14.33-32-32-32z" p-id="7852" fill="#2c2c2c"></path><path d="M512 190c-17.67 0-32 14.33-32 32s14.33 32 32 32c70.58 0 128 57.42 128 128 0 17.67 14.33 32 32 32s32-14.33 32-32c0-105.87-86.13-192-192-192z" p-id="7853" fill="#2c2c2c"></path></svg>