
<svg width="30px" height="30px" viewBox="0 0 30 30" version="1.1" xmlns="http://www.w3.org/2000/svg" xmlns:xlink="http://www.w3.org/1999/xlink">
    <g id="页面-1" stroke="none" stroke-width="1" fill="none" fill-rule="evenodd">
        <g id="首页" transform="translate(-227.000000, -221.000000)">
            <g id="编组-12" transform="translate(227.000000, 221.000000)">
                <circle id="椭圆形" stroke="#434343" stroke-width="2" fill-opacity="0.2" fill="#9DE0CA" cx="15" cy="15" r="13"></circle>
                <path d="M21.232,20.444 L20.336,17.532 L21.696,17.132 L21.904,15.612 L19.92,16.204 L19.552,15.004 L21.68,15.004 L22.48,9.228 L15.184,9.228 L13.616,20.444 L17.712,20.012 L17.92,18.492 L16.288,18.684 L16.816,15.004 L17.12,15.004 L18.816,20.444 L21.232,20.444 Z M10.32,20.396 L11.68,10.796 L12.384,10.796 L11.696,13.18 L11.504,14.556 L12.208,14.556 L11.616,17.292 L11.136,17.292 L10.96,18.652 L13.184,18.652 L14.064,14.556 L14.144,13.18 L13.6,13.18 L14.288,10.78 L14.496,9.228 L9.792,9.228 L8.224,20.396 L10.32,20.396 Z M19.984,11.532 L17.28,11.532 L17.408,10.62 L20.112,10.62 L19.984,11.532 Z M19.696,13.644 L16.992,13.644 L17.12,12.732 L19.824,12.732 L19.696,13.644 Z" id="限" fill="#12A86D" fill-rule="nonzero"></path>
                <rect id="矩形" x="0" y="0" width="30" height="30"></rect>
            </g>
        </g>
    </g>
</svg>