
<svg width="44px" height="45px" viewBox="0 0 44 45" version="1.1" xmlns="http://www.w3.org/2000/svg" xmlns:xlink="http://www.w3.org/1999/xlink">
    <defs>
        <linearGradient x1="2.45313369%" y1="0%" x2="103.415481%" y2="100%" id="linearGradient-1">
            <stop stop-color="#F39F32" offset="0%"></stop>
            <stop stop-color="#ED6913" offset="100%"></stop>
        </linearGradient>
        <filter x="-52.3%" y="-46.4%" width="204.7%" height="192.9%" filterUnits="objectBoundingBox" id="filter-2">
            <feOffset dx="0" dy="2" in="SourceAlpha" result="shadowOffsetOuter1"></feOffset>
            <feGaussianBlur stdDeviation="2" in="shadowOffsetOuter1" result="shadowBlurOuter1"></feGaussianBlur>
            <feColorMatrix values="0 0 0 0 0   0 0 0 0 0   0 0 0 0 0  0 0 0 0.163990581 0" type="matrix" in="shadowBlurOuter1" result="shadowMatrixOuter1"></feColorMatrix>
            <feMerge>
                <feMergeNode in="shadowMatrixOuter1"></feMergeNode>
                <feMergeNode in="SourceGraphic"></feMergeNode>
            </feMerge>
        </filter>
    </defs>
    <g id="页面-1" stroke="none" stroke-width="1" fill="none" fill-rule="evenodd">
        <g id="首页" transform="translate(-278.000000, -122.000000)">
            <g id="编组-7" transform="translate(278.000000, 122.000000)">
                <circle id="椭圆形备份-2" fill="url(#linearGradient-1)" cx="22" cy="22" r="22"></circle>
                <g id="编组-2" filter="url(#filter-2)" transform="translate(11.000000, 10.000000)" fill="#FFFFFF" fill-rule="nonzero">
                    <path d="M11.4635571,0 C17.7947596,0 22.927146,5.13241806 22.927146,11.4635888 C22.927146,13.4389781 22.4274646,15.2976544 21.5476406,16.9202061 C20.3038346,19.3909905 17.0614301,22.5134691 11.4635571,25.8443608 C5.86460464,22.5127705 2.62200965,19.3888315 1.3787117,16.9187138 C1.15690623,16.5094882 0.959262524,16.0851495 0.787653814,15.6476346 C0.279241185,14.3513777 0,12.9401223 0,11.4635889 C0,5.13238632 5.13241806,0 11.4635571,0 Z M11.4945888,2.22174123 C6.32191124,2.22174123 2.12862756,6.41502491 2.12862756,11.5877025 C2.12862756,16.76038 6.32191124,20.9536637 11.4945888,20.9536637 C16.6672664,20.9536637 20.8605501,16.76038 20.8605501,11.5877025 C20.8605501,6.41502491 16.6672664,2.22174123 11.4945888,2.22174123 Z" id="形状结合"></path>
                    <path d="M17.7254971,14.3713466 C15.8948329,12.1461482 14.0641687,9.92099919 12.2343188,7.69515928 C12.206559,7.66132937 12.1788733,7.64156442 12.133594,7.64038 C11.9372276,7.63529688 11.7409598,7.62478516 11.5445687,7.62132934 C11.4106309,7.61910984 11.3403309,7.69325927 11.3402075,7.82754251 C11.3401072,8.12567008 11.3395166,8.42387169 11.3429465,8.72190056 C11.3433413,8.75634734 11.3597504,8.79701232 11.3820075,8.8237604 C11.8815847,9.42448179 12.3830125,10.0236733 12.8842182,10.6231609 C13.0144546,10.7788377 13.1448145,10.9342924 13.2748289,11.0894757 C13.3397991,11.0574471 13.3982304,11.0221614 13.4611772,10.9994847 C13.532637,10.973699 13.6070825,10.9504795 13.6820709,10.9419171 C13.7834126,10.930295 13.8209931,10.9616574 13.8617568,11.0568796 C13.8713555,11.0792601 13.887049,11.0993705 13.9018296,11.1191602 C14.8211837,12.3487575 15.741747,13.5773925 16.6583869,14.8090133 C16.7385078,14.9166718 16.8376533,14.9841589 16.957995,15.0281057 C17.1670939,15.10455 17.3745643,15.1058331 17.5730281,14.9959044 C17.7823244,14.8799796 17.8632102,14.5387688 17.7254971,14.3713466 Z" id="路径"></path>
                    <path d="M15.2302023,11.0032107 C15.3672246,10.8237715 15.5050364,10.6448753 15.6414911,10.4650167 C15.8363277,10.2080476 16.0896201,10.0445734 16.4064269,9.97893694 C16.5774518,9.94352782 16.7452441,9.89375763 16.8865845,9.78750558 C16.9497534,9.74007955 17.0060379,9.67700937 17.0485289,9.61023787 C17.1062445,9.51943257 17.1443679,9.416413 17.1968277,9.3219064 C17.3862604,8.98069567 17.5783333,8.64096545 17.7691725,8.30051966 C17.7952543,8.25410533 17.780153,8.18311434 17.7361322,8.15046886 C17.6831789,8.11133374 17.6542593,8.15495978 17.6228723,8.18632214 C17.6053035,8.20386632 17.5884749,8.22227412 17.5725593,8.24132351 C17.3289889,8.53212252 17.083938,8.82176177 16.8438222,9.11544777 C16.8004923,9.16840107 16.756274,9.1791842 16.6971766,9.1663777 C16.6335882,9.15263351 16.6132064,9.11396726 16.6450869,9.05770747 C16.667196,9.01869574 16.6944376,8.98178142 16.7241961,8.94817359 C16.9577483,8.68446814 17.1923615,8.421725 17.4267773,8.15883383 C17.4730189,8.10699093 17.4690955,8.0686701 17.4105903,8.01122588 C17.3689136,7.97031414 17.3305681,7.97292974 17.2840798,8.02504406 C17.2164446,8.10092078 17.1507095,8.17840136 17.0851471,8.2560547 C16.8987989,8.47702245 16.7131662,8.6986071 16.5267933,8.91950083 C16.4904958,8.96248528 16.3582853,8.98745674 16.3281567,8.95182554 C16.2779424,8.89230858 16.3440723,8.85630727 16.3671931,8.81245917 C16.3734113,8.80066436 16.3834788,8.79086824 16.3923373,8.78062797 C16.6025466,8.53846409 16.8127065,8.29630021 17.0231132,8.05428438 C17.0639756,8.00727785 17.105677,7.96096221 17.1478225,7.91331412 C17.1294393,7.88895955 17.1173977,7.86971277 17.1021977,7.85337769 C17.0562769,7.804027 17.0305405,7.80555687 16.9878275,7.85794263 C16.7611104,8.13628058 16.5298036,8.41111462 16.3102671,8.69497985 C16.2432241,8.78151631 16.1710734,8.78928903 16.0809097,8.77292928 C16.0050577,8.75918509 15.9880317,8.71578117 16.0350382,8.65271097 C16.064624,8.61300832 16.0972694,8.57495893 16.1322098,8.53991993 C16.3600866,8.31105606 16.5887037,8.08298181 16.8176416,7.85517898 C16.889669,7.78359579 16.890582,7.78441008 16.8333598,7.7015009 C16.8257105,7.69037232 16.8175429,7.67946582 16.8085364,7.66939828 C16.755139,7.60956054 16.7215805,7.60753717 16.6600895,7.6598736 C16.6359817,7.68035413 16.6123427,7.70135287 16.5876674,7.72116718 C16.1633007,8.06173635 15.7384652,8.40188605 15.3150609,8.74366431 C15.2933466,8.76125783 15.2711634,8.79187994 15.2691154,8.81798646 C15.2519413,9.03858408 15.2339283,9.25935444 15.2274387,9.4804209 C15.2234166,9.6185535 15.1893153,9.73341725 15.0939204,9.84036023 C14.9440423,10.0082266 14.8098084,10.1900593 14.6670615,10.3683634 C14.8481786,10.588813 15.0267541,10.8061534 15.2136205,11.0336355 C15.2214919,11.0190029 15.2247984,11.0103172 15.2302023,11.0032107 Z" id="路径"></path>
                    <path d="M14.1462883,11.6364542 C14.0624414,11.5367411 13.9784465,11.4371514 13.8928724,11.335563 C13.8780919,11.3531072 13.8677036,11.364902 13.8578828,11.3771903 C13.0383897,12.3991693 12.218724,13.4210495 11.4001686,14.4438428 C11.3685841,14.483348 11.3475607,14.5313169 11.3216023,14.575313 L11.3216023,14.697308 C11.3855608,14.9573861 11.5925376,15.0360758 11.8192547,15.0898681 C11.8386495,15.0944824 11.857995,15.0992694 11.8773898,15.103933 L11.9857886,15.103933 C12.1056368,15.0936681 12.1704096,15.0116966 12.2371564,14.9233095 C12.5650918,14.4889493 12.8968766,14.0575008 13.2273535,13.6250653 C13.6249968,13.1046375 14.0220972,12.5837655 14.4212703,12.0645715 C14.4541132,12.0219572 14.4529535,11.996665 14.4176677,11.9571104 C14.3244936,11.8526103 14.236452,11.7436192 14.1462883,11.6364542 Z" id="路径"></path>
                    <path d="M7.92842088,7.59416308 C9.0580584,7.59416308 9.63812652,7.76718663 10.0553867,8.10301813 C10.4726222,8.43884966 10.7270497,8.95787095 10.7270497,9.62953395 C10.7270497,11.6140243 8.88505951,11.7361426 7.82665973,11.7361426 L7.00233032,11.7361426 L7.00233032,14.0055839 C7.00233032,14.7383184 7.04304467,14.7993899 7.94877805,14.7993899 L7.94877805,14.7993899 L7.94877805,15.1250305 L5.34350527,15.1250305 L5.34350527,14.7993899 C6.08640604,14.7993899 6.14747753,14.7383184 6.14747753,14.0055839 L6.14671722,8.59117624 C6.13793338,7.97392627 6.04270599,7.91982834 5.34350527,7.91982834 L5.34350527,7.91982834 L5.34350527,7.59416308 Z M7.80627791,8.00123232 L7.24654227,8.00123232 C7.03282907,8.00123232 7.00230566,8.10299346 7.00230566,8.61184852 L7.00230566,8.61184852 L7.00230566,11.3290734 L7.82663509,11.3290734 C8.84434519,11.3290734 9.85181505,11.0644796 9.85181505,9.61934305 C9.85181505,9.10032175 9.66862526,8.67289534 9.37350808,8.39811064 C9.03767658,8.11318437 8.5288215,8.00123232 7.80627791,8.00123232 L7.80627791,8.00123232 Z" id="形状结合"></path>
                </g>
            </g>
        </g>
    </g>
</svg>