<svg width="30px" height="30px" viewBox="0 0 30 30" version="1.1" xmlns="http://www.w3.org/2000/svg" xmlns:xlink="http://www.w3.org/1999/xlink">
    <g id="页面-1" stroke="none" stroke-width="1" fill="none" fill-rule="evenodd">
        <g id="首页" transform="translate(-43.000000, -221.000000)">
            <g id="编组-10" transform="translate(43.000000, 221.000000)">
                <rect id="矩形" fill="#000000" fill-rule="nonzero" opacity="0" x="1" y="1" width="28" height="28"></rect>
                <path d="M18.855472,11.1335938 C18.8582031,9.0171875 17.1410156,7.3 15.0246094,7.30273111 C12.94375,7.30546875 11.2019531,9.04726563 11.1992155,11.128125 C11.1964844,13.2445313 12.9136719,14.9617188 15.0300781,14.9589876 C17.1109375,14.95625 18.8527344,13.2144531 18.855472,11.1335938 Z" id="路径" fill="#1DB080" fill-rule="nonzero"></path>
                <path d="M9.203125,19.1152344 L9.203125,22.2324219 C9.203125,22.5332031 9.44921875,22.7792969 9.75,22.7792969 L20.3046875,22.7792969 C20.6054687,22.7792969 20.8515625,22.5332031 20.8515625,22.2324219 L20.8515625,19.1699219 L22.3417969,19.1699219 C22.6425781,19.1699219 22.8886719,18.9238281 22.8886719,18.6230469 L22.8886719,16.9550781 C22.8886719,16.3371094 22.3855469,15.8339844 21.7675781,15.8339844 L17.8027344,15.8339844 C17.7753906,15.8339844 17.7453125,15.8367188 17.7179687,15.8367188 C17.66875,15.8339844 17.6195312,15.8339844 17.5703125,15.8339844 L12.484375,15.8339844 C10.6796875,15.8339844 9.203125,17.3105469 9.203125,19.1152344 Z" id="路径" fill="#9DE0CA" fill-rule="nonzero"></path>
                <path d="M26.0824219,12.1890625 C25.8691406,11.9757813 25.5246094,11.9730469 25.3085937,12.1863281 L23.3671875,14.1140625 C23.1539062,14.3273438 23.1511719,14.671875 23.3644531,14.8878906 L24.9449219,16.4792969 C25.1582031,16.6925781 25.5027344,16.6953125 25.71875,16.4820313 L27.6574219,14.5542969 C27.8707031,14.3410156 27.8734375,13.9964844 27.6601562,13.7804688 L26.0824219,12.1890625 L26.0824219,12.1890625 Z" id="路径" fill="#1DB080" fill-rule="nonzero"></path>
                <polyline id="路径-50" stroke="#434343" stroke-width="2.5" stroke-linecap="round" stroke-linejoin="round" points="26.0364752 8.52411367 26.0364752 3.88141689 4.268604 3.88141689 4.268604 25.8814169 26.0364752 25.8814169 26.0364752 20.1349373"></polyline>
                <rect id="矩形" x="0" y="0" width="30" height="30"></rect>
            </g>
        </g>
    </g>
</svg>