<?xml version="1.0" encoding="UTF-8"?>
<svg width="32px" height="32px" viewBox="0 0 32 32" version="1.1" xmlns="http://www.w3.org/2000/svg" xmlns:xlink="http://www.w3.org/1999/xlink">
    <title>编组 41</title>
    <g id="页面-1" stroke="none" stroke-width="1" fill="none" fill-rule="evenodd">
        <g id="编辑状态" transform="translate(-26.000000, -713.000000)">
            <g id="编组-41" transform="translate(26.000000, 713.000000)">
                <g id="编组-40" transform="translate(6.292773, 5.084049)">
                    <path d="M17.2888636,11.9006117 C17.5745331,11.7931622 17.895582,11.880239 18.0912045,12.1182273 C18.286827,12.3562157 18.3148957,12.6938648 18.1613516,12.962054 C18.0078075,13.2302433 17.7057164,13.3712182 17.4063887,13.3143676 L17.1362161,14.8852075 C17.7616656,15.0946528 18.2641866,15.5466137 18.5586747,16.1212104 L20.0432729,15.5700386 C20.1016629,15.2448344 20.3655231,14.9992828 20.6883443,14.9697271 C21.0111656,14.9401713 21.3136766,15.133869 21.4279073,15.443269 C21.6621883,15.6418575 21.748924,15.9691553 21.6446365,16.2610978 C21.5403489,16.5530403 21.2675187,16.7466953 20.9629075,16.7449895 C20.6582962,16.7432836 20.387567,16.5465846 20.2864282,16.2534917 L18.7977774,16.8060415 C18.9255913,17.4476576 18.8102223,18.1148428 18.4749212,18.6731363 L19.6906977,19.7107173 C19.9961132,19.5995624 20.3367059,19.7099469 20.523214,19.980532 C20.7097221,20.251117 20.6963009,20.6153916 20.4904085,20.8709342 C20.4386007,21.1769082 20.2040715,21.4167786 19.9042476,21.4704443 C19.6044238,21.5241099 19.3038425,21.3800193 19.1530024,21.1103173 C19.0021623,20.8406153 19.0335318,20.5033554 19.2314044,20.2674009 L18.0210313,19.2339537 C17.5436105,19.6798886 16.914683,19.9186087 16.2676113,19.8994937 L15.9974387,21.4689556 C16.2448759,21.6830465 16.3217353,22.0393037 16.1852664,22.3395712 C16.0487976,22.6398387 15.7325865,22.8102183 15.4125151,22.755942 C15.1359019,22.9194565 14.7867734,22.8777452 14.5546898,22.6534554 C14.3226063,22.4291657 14.2629402,22.0758104 14.4080875,21.7852449 C14.5532347,21.4946793 14.8685648,21.3362292 15.1828684,21.3959254 L15.2936392,21.3421861 L15.5665135,19.7713462 C14.9520087,19.5639786 14.4408327,19.1206495 14.1413532,18.5353433 L12.6581058,19.0865152 C12.5997158,19.4117194 12.3358556,19.6572709 12.0130344,19.6868266 C11.6902131,19.7163824 11.3877021,19.5226847 11.2734714,19.2132847 C10.996211,19.0506358 10.8570541,18.721177 10.931609,18.4039137 C11.006164,18.0866504 11.2766269,17.8573458 11.5960467,17.8405884 C11.9154665,17.8238309 12.2075649,18.0236224 12.3136357,18.3314097 L12.4135996,18.4016841 L13.9036013,17.8505122 C13.7757874,17.2088961 13.8911564,16.5417109 14.2264575,15.9834175 L13.0120318,14.9458364 C12.7064142,15.0580574 12.3649608,14.9480867 12.1779294,14.6772001 C11.9908981,14.4063135 12.0044239,14.0413304 12.2109702,13.7856196 C12.2104489,13.4595688 12.4203484,13.172049 12.7267378,13.0791224 C13.0331273,12.9861959 13.3629339,13.1100252 13.5371427,13.3833973 C13.7113515,13.6567695 13.6884144,14.0144862 13.4807812,14.2623833 L13.4699743,14.3863969 L14.6803474,15.4226001 C15.1574294,14.9770016 15.7858076,14.7383062 16.4324166,14.75706 L16.7025891,13.1862202 C16.4561286,12.9716767 16.3801425,12.6158368 16.5167986,12.3161712 C16.6534548,12.0165056 16.9692203,11.8465466 17.2888636,11.9006117 L17.2888636,11.9006117 Z" id="路径" fill="#12A86D" fill-rule="nonzero"></path>
                    <polyline id="路径-75" stroke="#333333" stroke-width="2.5" stroke-linecap="round" stroke-linejoin="round" points="19.139985 9.32413297 19.139985 0 0 0 0 21.8210808 8.7072268 21.8210808"></polyline>
                    <line x1="5.56267541" y1="5.64223338" x2="14.4479814" y2="5.64223338" id="路径-76" stroke="#333333" stroke-width="2.5" stroke-linecap="round"></line>
                    <line x1="5.56267541" y1="10.6422334" x2="9.4479814" y2="10.6422334" id="路径-76" stroke="#333333" stroke-width="2.5" stroke-linecap="round"></line>
                    <line x1="5.56267541" y1="15.6422334" x2="7.4479814" y2="15.6422334" id="路径-76" stroke="#333333" stroke-width="2.5" stroke-linecap="round"></line>
                </g>
                <rect id="矩形" fill="#D8D8D8" opacity="0" x="0" y="0" width="32" height="32"></rect>
            </g>
        </g>
    </g>
</svg>