<?xml version="1.0" encoding="UTF-8"?>
<svg width="32px" height="32px" viewBox="0 0 32 32" version="1.1" xmlns="http://www.w3.org/2000/svg" xmlns:xlink="http://www.w3.org/1999/xlink">
    <title>编组 27</title>
    <g id="页面-1" stroke="none" stroke-width="1" fill="none" fill-rule="evenodd">
        <g id="所有应用" transform="translate(-25.000000, -609.000000)">
            <g id="编组-27" transform="translate(25.000000, 609.000000)">
                <g id="编组-5" transform="translate(6.292773, 5.084049)">
                    <path d="M9.7420972,3.51474884 C10.2813619,3.51474884 10.7780863,3.81574966 11.0391567,4.30072997 L12.1509219,6.58610325 L14.5597467,6.96699878 C14.9956991,7.11929393 15.3380437,7.47116012 15.4862177,7.91923765 C15.6961487,8.4243026 15.6253545,9.00640789 15.3009235,9.44281982 L13.4479814,11.3472975 L13.8185698,14.0135663 C13.9347407,14.5891198 13.7184184,15.1820232 13.2626872,15.5371485 C12.8040454,15.8093103 12.2389753,15.8093103 11.7803335,15.5371485 L9.556803,14.3944619 L7.5185667,15.5371485 L6.77738985,15.7275963 L6.03621301,15.7275963 C5.54373318,15.3907889 5.2617029,14.8110402 5.29503618,14.2040141 L5.85091881,11.5377453 L3.99797671,9.63326758 C3.60968341,9.23500484 3.46712275,8.64890212 3.62738831,8.10968542 C3.8427889,7.5600335 4.34871685,7.18860545 4.92444777,7.15744654 L7.33327248,6.77655101 L8.44503774,4.30072997 C8.70610814,3.81574966 9.20283249,3.51474884 9.7420972,3.51474884 Z M9.7420972,5.82431214 L8.81562617,7.5383421 C8.44503774,8.10968542 8.07444933,8.49058094 7.70386091,8.49058097 L5.85091881,8.49058097 L7.14797827,10.0141631 C7.51033972,10.2730595 7.71976533,10.7035602 7.70386091,11.1568498 L7.33327248,13.442223 L9.00092037,12.6804319 L9.556803,12.4899842 L10.1126856,12.4899842 L11.9656277,13.442223 L11.5950393,11.5377453 C11.5032935,11.0579925 11.6411346,10.5621306 11.9656277,10.2046109 L13.4479814,8.68102873 L11.4097451,8.68102873 C11.2244509,8.49058097 10.6685683,8.30013318 10.483274,7.72878986 L9.7420972,5.82431214 Z" id="形状结合" fill="#12A86D" fill-rule="nonzero"></path>
                    <polyline id="路径-61" stroke="#333333" stroke-width="2.6" stroke-linecap="round" stroke-linejoin="round" points="19.139985 22.7959747 0 22.7959747 0 0 19.139985 0 19.139985 18.9189647 0.790795394 18.9189647"></polyline>
                </g>
                <rect id="矩形备份-12" fill="#D8D8D8" opacity="0" x="0" y="0" width="32" height="32"></rect>
            </g>
        </g>
    </g>
</svg>