<?xml version="1.0" encoding="UTF-8"?>
<svg width="32px" height="32px" viewBox="0 0 32 32" version="1.1" xmlns="http://www.w3.org/2000/svg" xmlns:xlink="http://www.w3.org/1999/xlink">
    <title>编组 31备份</title>
    <g id="页面-1" stroke="none" stroke-width="1" fill="none" fill-rule="evenodd">
        <g id="所有应用" transform="translate(-318.000000, -564.000000)">
            <g id="编组-31备份" transform="translate(318.000000, 564.000000)">
                <g id="编组-6" transform="translate(2.682927, 2.585366)">
                    <polyline id="路径-66" stroke="#999999" stroke-width="2.6" stroke-linecap="round" points="2.41752692 16.5324627 13.3716039 13.414634 16.466792 1.59130763"></polyline>
                    <path d="M17.3653604,0.669927699 L26.0545547,9.51634355 C26.932251,10.4100413 26.932251,11.8590232 26.0545547,12.7515293 L17.0025792,21.9673402 L25.7058166,21.9685318 C26.3260554,21.9685318 26.829268,22.4809185 26.829268,23.1124649 L26.829268,24.0538265 L1.14553111,24.0538265 C0.525066048,24.0538265 0.0220797327,23.5416702 0.0220797327,22.9098934 L0.0220797327,21.9685318 L4.738235,21.9673402 L0.634126682,17.6549508 C-0.220403564,16.7579673 -0.209983199,15.3287547 0.657531919,14.4447886 L14.1880995,0.669927699 C15.0655307,-0.223309233 16.4879291,-0.223309233 17.3653604,0.669927699 Z M15.9511657,1.98765956 L2.01316845,16.0193279 L3.076,17.155 L3.02263112,17.1699708 L7.52228795,21.8958444 L14.1916102,21.8815452 L24.6069407,11.2775239 C24.6670314,11.2156814 24.6816332,11.1216773 24.6432189,11.0439709 L24.6057705,10.9915406 L20.393,6.701 L15.9511657,1.98765956 Z" id="形状结合" fill="#999999" fill-rule="nonzero"></path>
                </g>
                <rect id="矩形备份-17" fill="#D8D8D8" opacity="0" x="0" y="0" width="32" height="32"></rect>
            </g>
        </g>
    </g>
</svg>