<?xml version="1.0" encoding="UTF-8"?>
<svg width="33px" height="32px" viewBox="0 0 33 32" version="1.1" xmlns="http://www.w3.org/2000/svg" xmlns:xlink="http://www.w3.org/1999/xlink">
    <title>编组 38</title>
    <g id="页面-1" stroke="none" stroke-width="1" fill="none" fill-rule="evenodd">
        <g id="所有应用" transform="translate(-23.000000, -901.000000)">
            <g id="编组-38" transform="translate(23.500000, 901.000000)">
                <g id="编组-20" transform="translate(1.259259, 9.590741)" fill-rule="nonzero">
                    <path d="M6.8404762,3.46666665 L7.21190478,4.17857143 L7.21190478,9.44047618 L6.31428574,9.44047618 L6.31428574,10.4309524 C4.02380955,10.1523809 2.84761906,11.5452381 2.84761906,13.4333333 L2.84761906,13.4333333 L2.4452381,13.4333333 L2.4452381,13.0928571 L0.61904762,13.0928571 L0,12.3809524 L0,10.0904762 L0.495238116,9.44047618 L0.495238116,9.40952381 L0.371428579,9.40952381 L0.0619047849,8.75952381 L0.092857161,7.49047616 L6.25238095,7.49047616 L6.25238095,7.2738095 L0.092857161,7.2738095 C0.309523826,6.00476188 0.680952405,4.70476189 1.36190478,3.46666665 L1.36190478,3.46666665 L6.8404762,3.46666665 Z M2.1047619,12.2571428 L0.80476191,12.2571428 L0.80476191,12.5357143 L2.1047619,12.5357143 L2.1047619,12.2571428 Z M2.47619048,11.2666667 L0.80476191,11.2666667 L0.80476191,11.5452381 L2.47619048,11.5452381 L2.47619048,11.2666667 Z M3.06428573,10.3071428 L0.773809533,10.3071428 L0.773809533,10.5857143 L3.06428573,10.5857143 L3.06428573,10.3071428 Z M5.50952383,4.36428569 L2.66190477,4.36428569 L2.66190477,5.54047617 C2.66190477,5.63333333 2.59999999,5.69523809 2.50714286,5.69523809 L2.50714286,5.69523809 L1.95000002,5.69523809 C1.85714286,5.69523809 1.79523811,5.6333333 1.79523811,5.54047617 L1.79523811,5.54047617 L1.79523811,4.58095238 C1.42380953,5.35476188 1.20714286,6.19047617 1.14523811,7.05714283 L1.14523811,7.05714283 L5.50952383,6.46904762 L5.50952383,4.36428569 Z" id="形状结合" fill="#333333"></path>
                    <path d="M28.7857143,0 L28.7857143,9.28571427 L7.76904765,9.28571427 L7.76904765,0 L28.7857143,0 Z M25.6285714,0.773809501 L25.1333334,0.773809501 L25.1333334,8.75952381 L25.6285714,8.75952381 L25.6285714,0.773809501 Z M10.9880953,0.773809501 L10.4928572,0.773809501 L10.4928572,8.75952381 L10.9880953,8.75952381 L10.9880953,0.773809501 Z M14.5166667,0.773809501 L14.0214286,0.773809501 L14.0214286,8.75952381 L14.5166667,8.75952381 L14.5166667,0.773809501 Z M18.1380952,0.773809501 L17.6428572,0.773809501 L17.6428572,8.75952381 L18.1380952,8.75952381 L18.1380952,0.773809501 Z M22.0071429,0.773809501 L21.5119048,0.773809501 L21.5119048,8.75952381 L22.0071429,8.75952381 L22.0071429,0.773809501 Z" id="形状结合" fill="#12A86D"></path>
                    <path d="M7.4904762,11.1738095 L6.62380953,11.1738095 L6.62380953,13.0619047 L7.24285715,13.0619047 C7.24285715,13.2166667 7.21190478,13.4023809 7.24285715,13.5880952 L7.45952382,13.5880952 L7.67619048,13.6190476 C7.73809524,13.0309524 7.86190477,12.4738095 8.04761903,11.9785714 C8.23333332,11.4833333 8.44999999,11.05 8.69761906,10.7095238 L12.2880952,10.7095238 C12.5047619,11.1119048 12.6595238,11.5452381 12.7833333,11.9785714 C12.9380952,12.4738095 13.0309524,13.0309524 13.0928572,13.5880952 L13.4333333,13.5571428 L13.7738095,13.5880952 C13.8357143,13 13.9595238,12.4428572 14.1452381,11.947619 C14.3309524,11.452381 14.5476191,11.0190476 14.7952381,10.6785714 L18.3857143,10.6785714 C18.602381,11.0809524 18.7571429,11.5142857 18.8809524,11.947619 C19.0357143,12.4428571 19.1285714,13 19.1904762,13.5571428 L19.6238095,13.5261905 C19.6238095,13.4333333 19.5928572,13.3404762 19.5928572,13.247619 L19.5928572,13.0309524 L26.8047619,13.0309524 L26.8047619,13.5571428 L27.2690476,13.5571428 C27.2071428,12.0095238 27.7642857,10.8952381 29.25,10.4309524 L29.25,9.99761902 C28.9404762,10.0595238 28.6928571,10.1833333 28.4452381,10.3071428 L28.4452381,9.93571427 C27.8571428,9.93571427 27.3309524,9.90476189 26.7738095,9.90476189 L26.7738095,11.1428571 L24.8857143,11.1428571 L24.4214286,9.90476189 L7.4904762,9.90476189 L7.4904762,11.1738095 L7.4904762,11.1738095 Z" id="路径" fill="#333333" transform="translate(17.936905, 11.761905) scale(-1, 1) translate(-17.936905, -11.761905) "></path>
                    <path d="M25.4738095,10.9261905 C26.1547619,10.9261905 26.7738095,11.2047619 27.2380952,11.6690476 C27.7023809,12.1333333 27.9809524,12.7523809 27.9809524,13.4333333 C27.9809524,14.1142857 27.702381,14.7333333 27.2380952,15.197619 C26.7738095,15.6619047 26.1547619,15.9404762 25.4738095,15.9404762 C24.7928572,15.9404762 24.1738095,15.6619048 23.7095238,15.197619 C23.2452381,14.7333333 22.9666667,14.1142857 22.9666667,13.4333333 C22.9666667,12.752381 23.2452381,12.1333333 23.7095238,11.6690476 C24.1738095,11.2047619 24.7928571,10.9261905 25.4738095,10.9261905 Z" id="路径" fill="#12A86D" transform="translate(25.473810, 13.433333) scale(-1, 1) translate(-25.473810, -13.433333) "></path>
                    <path d="M26.2785715,13.3095238 C26.3404762,13.3095238 26.402381,13.3714285 26.402381,13.4333333 C26.402381,13.4952381 26.3404762,13.5571428 26.2785715,13.5571428 C26.2166667,13.5571428 26.1547619,13.4952381 26.1547619,13.4333333 C26.1547619,13.3404762 26.2166667,13.3095238 26.2785715,13.3095238 Z" id="路径" fill="#12A86D" transform="translate(26.278571, 13.433333) scale(-1, 1) translate(-26.278571, -13.433333) "></path>
                    <path d="M25.9380953,13.897619 C25.8761905,13.9595238 25.8761905,14.0214286 25.9380953,14.0833333 C26,14.1452381 26.0619048,14.1452381 26.1238095,14.0833333 C26.1857143,14.0214286 26.1857143,13.9595238 26.1238095,13.897619 C26.0619048,13.8666667 25.9690476,13.8666667 25.9380953,13.897619 Z" id="路径" fill="#12A86D" transform="translate(26.030952, 14.002083) scale(-1, 1) translate(-26.030952, -14.002083) "></path>
                    <path d="M25.35,14.2071429 C25.35,14.2690476 25.4119048,14.3309524 25.4738096,14.3309524 C25.5357143,14.3309524 25.5976191,14.2690476 25.5976191,14.2071429 C25.5976191,14.1452381 25.5357143,14.0833333 25.4738096,14.0833333 C25.4119048,14.0833333 25.35,14.1452381 25.35,14.2071429 Z" id="路径" fill="#12A86D" transform="translate(25.473810, 14.207143) scale(-1, 1) translate(-25.473810, -14.207143) "></path>
                    <path d="M24.8005952,14.0833333 C24.8625,14.1452381 24.9244048,14.1452381 24.9863095,14.0833333 C25.0482143,14.0214286 25.0482143,13.9595238 24.9863095,13.897619 C24.9244048,13.8357143 24.8625,13.8357143 24.8005952,13.897619 C24.7696429,13.9595238 24.7696429,14.0214286 24.8005952,14.0833333 Z" id="路径" fill="#12A86D" transform="translate(24.905060, 13.990476) scale(-1, 1) translate(-24.905060, -13.990476) "></path>
                    <path d="M24.6690476,13.5571428 C24.6071429,13.5571428 24.5452381,13.4952381 24.5452381,13.4333333 C24.5452381,13.3714286 24.6071429,13.3095238 24.6690476,13.3095238 C24.7309524,13.3095238 24.7928572,13.3714285 24.7928572,13.4333333 C24.7928572,13.4952381 24.7309524,13.5571428 24.6690476,13.5571428 Z" id="路径" fill="#12A86D" transform="translate(24.669048, 13.433333) scale(-1, 1) translate(-24.669048, -13.433333) "></path>
                    <path d="M25.0327381,12.9380952 C24.9708333,13 24.9089286,13 24.8470238,12.9380952 C24.7851191,12.8761905 24.7851191,12.8142857 24.8470238,12.752381 C24.9089286,12.6904762 24.9708333,12.6904762 25.0327381,12.752381 C25.0636905,12.8142857 25.0636905,12.9071429 25.0327381,12.9380952 Z" id="路径" fill="#12A86D" transform="translate(24.928274, 12.845238) scale(-1, 1) translate(-24.928274, -12.845238) "></path>
                    <path d="M25.5976191,12.6285714 C25.5976191,12.6904762 25.5357143,12.752381 25.4738096,12.752381 C25.4119048,12.752381 25.35,12.6904762 25.35,12.6285714 C25.35,12.5666666 25.4119048,12.5047619 25.4738096,12.5047619 C25.5357143,12.5047619 25.5976191,12.5666666 25.5976191,12.6285714 Z" id="路径" fill="#12A86D" transform="translate(25.473810, 12.628571) scale(-1, 1) translate(-25.473810, -12.628571) "></path>
                    <path d="M26.1547619,12.7833333 C26.2166667,12.8452381 26.2166667,12.9071429 26.1547619,12.9690476 C26.0928572,13.0309524 26.0309524,13.0309524 25.9690476,12.9690476 C25.9071429,12.9071429 25.9071429,12.8452381 25.9690476,12.7833333 C26.0309524,12.7214286 26.1238096,12.7214286 26.1547619,12.7833333 Z" id="路径" fill="#12A86D" transform="translate(26.061905, 12.876190) scale(-1, 1) translate(-26.061905, -12.876190) "></path>
                    <path d="M26.1857143,12.6904762 C26.3714286,12.8761905 26.4952381,13.1238095 26.4952381,13.4023809 C26.4952381,13.6809524 26.3714286,13.9285714 26.1857143,14.1142857 C26,14.3 25.7523809,14.4238095 25.4738095,14.4238095 C25.1952381,14.4238095 24.947619,14.3 24.7619047,14.1142857 C24.5761905,13.9285714 24.452381,13.6809524 24.452381,13.4023809 C24.452381,13.1238095 24.5761905,12.8761905 24.7619047,12.6904762 C24.947619,12.5047619 25.1952381,12.3809524 25.4738095,12.3809524 C25.7523809,12.3809524 26,12.5047619 26.1857143,12.6904762 Z" id="路径" fill="#E5F4F0" transform="translate(25.473810, 13.402381) scale(-1, 1) translate(-25.473810, -13.402381) "></path>
                    <path d="M19.3761905,10.9261905 C20.0571429,10.9261905 20.6761905,11.2047619 21.1404762,11.6690476 C21.6047619,12.1333333 21.8833333,12.7523809 21.8833333,13.4333333 C21.8833333,14.1142857 21.6047619,14.7333333 21.1404762,15.197619 C20.6761904,15.6619047 20.0571429,15.9404762 19.3761905,15.9404762 C18.6952381,15.9404762 18.0761905,15.6619048 17.6119048,15.197619 C17.147619,14.7333333 16.8690476,14.1142857 16.8690476,13.4333333 C16.8690476,12.752381 17.147619,12.1333333 17.6119048,11.6690476 C18.0761905,11.2047619 18.6952381,10.9261905 19.3761905,10.9261905 Z" id="路径" fill="#12A86D" transform="translate(19.376190, 13.433333) scale(-1, 1) translate(-19.376190, -13.433333) "></path>
                    <path d="M20.15,13.3095238 C20.2119047,13.3095238 20.2738095,13.3714285 20.2738095,13.4333333 C20.2738095,13.4952381 20.2119048,13.5571428 20.15,13.5571428 C20.0880952,13.5571428 20.0261905,13.4952381 20.0261905,13.4333333 C20.0261905,13.3404762 20.0571429,13.3095238 20.15,13.3095238 Z" id="路径" fill="#12A86D" transform="translate(20.150000, 13.433333) scale(-1, 1) translate(-20.150000, -13.433333) "></path>
                    <path d="M19.8404762,13.897619 C19.7785714,13.9595238 19.7785714,14.0214286 19.8404762,14.0833333 C19.9023809,14.1452381 19.9642857,14.1452381 20.0261905,14.0833333 C20.0880952,14.0214286 20.0880952,13.9595238 20.0261905,13.897619 C19.9642857,13.8666667 19.9023809,13.8666667 19.8404762,13.897619 Z" id="路径" fill="#12A86D" transform="translate(19.933333, 14.002083) scale(-1, 1) translate(-19.933333, -14.002083) "></path>
                    <path d="M19.252381,14.2071429 C19.252381,14.2690476 19.3142857,14.3309524 19.3761905,14.3309524 C19.4380953,14.3309524 19.5,14.2690476 19.5,14.2071429 C19.5,14.1452381 19.4380953,14.0833333 19.3761905,14.0833333 C19.3142858,14.0833333 19.252381,14.1452381 19.252381,14.2071429 Z" id="路径" fill="#12A86D" transform="translate(19.376191, 14.207143) scale(-1, 1) translate(-19.376191, -14.207143) "></path>
                    <path d="M18.6952381,14.0833333 C18.7571429,14.1452381 18.8190476,14.1452381 18.8809524,14.0833333 C18.9428572,14.0214286 18.9428572,13.9595238 18.8809524,13.897619 C18.8190476,13.8357143 18.7571429,13.8357143 18.6952381,13.897619 C18.6333334,13.9595238 18.6333334,14.0214286 18.6952381,14.0833333 Z" id="路径" fill="#12A86D" transform="translate(18.788095, 13.990476) scale(-1, 1) translate(-18.788095, -13.990476) "></path>
                    <path d="M18.5714286,13.5571428 C18.5095239,13.5571428 18.4476191,13.4952381 18.4476191,13.4333333 C18.4476191,13.3714286 18.5095238,13.3095238 18.5714286,13.3095238 C18.6333334,13.3095238 18.6952381,13.3714285 18.6952381,13.4333333 C18.6952381,13.4952381 18.6333334,13.5571428 18.5714286,13.5571428 Z" id="路径" fill="#12A86D" transform="translate(18.571429, 13.433333) scale(-1, 1) translate(-18.571429, -13.433333) "></path>
                    <path d="M18.9119048,12.9380952 C18.85,13 18.7880952,13 18.7261905,12.9380952 C18.6642857,12.8761905 18.6642857,12.8142857 18.7261905,12.752381 C18.7880952,12.6904762 18.85,12.6904762 18.9119048,12.752381 C18.9738095,12.8142857 18.9738095,12.9071429 18.9119048,12.9380952 Z" id="路径" fill="#12A86D" transform="translate(18.819048, 12.845238) scale(-1, 1) translate(-18.819048, -12.845238) "></path>
                    <path d="M19.5,12.6285714 C19.5,12.6904762 19.4380953,12.752381 19.3761905,12.752381 C19.3142858,12.752381 19.252381,12.6904762 19.252381,12.6285714 C19.252381,12.5666666 19.3142857,12.5047619 19.3761905,12.5047619 C19.4380953,12.5047619 19.5,12.5666666 19.5,12.6285714 Z" id="路径" fill="#12A86D" transform="translate(19.376191, 12.628571) scale(-1, 1) translate(-19.376191, -12.628571) "></path>
                    <path d="M20.0261905,12.7833333 C20.0880952,12.8452381 20.0880952,12.9071429 20.0261905,12.9690476 C19.9642857,13.0309524 19.9023809,13.0309524 19.8404762,12.9690476 C19.7785714,12.9071429 19.7785714,12.8452381 19.8404762,12.7833333 C19.9023809,12.7214286 19.9642857,12.7214286 20.0261905,12.7833333 Z" id="路径" fill="#12A86D" transform="translate(19.933333, 12.876190) scale(-1, 1) translate(-19.933333, -12.876190) "></path>
                    <path d="M20.0571429,12.6904762 C20.2428571,12.8761905 20.3666667,13.1238095 20.3666667,13.4023809 C20.3666667,13.6809524 20.2428571,13.9285714 20.0571429,14.1142857 C19.8714286,14.3 19.6238095,14.4238095 19.3452381,14.4238095 C19.0666667,14.4238095 18.8190476,14.3 18.6333334,14.1142857 C18.4476191,13.9285714 18.3238095,13.6809524 18.3238095,13.4023809 C18.3238095,13.1238095 18.4476191,12.8761905 18.6333334,12.6904762 C18.8190476,12.5047619 19.0666667,12.3809524 19.3452381,12.3809524 C19.5928572,12.3809524 19.8714286,12.5047619 20.0571429,12.6904762 Z" id="路径" fill="#E5F4F0" transform="translate(19.345238, 13.402381) scale(-1, 1) translate(-19.345238, -13.402381) "></path>
                    <path d="M5.75714287,10.9261905 C5.0761905,10.9261905 4.45714288,11.2047619 3.99285717,11.6690476 C3.52857146,12.1333333 3.25000001,12.7523809 3.25000001,13.4333333 C3.25000001,14.1142857 3.52857143,14.7333333 3.99285717,15.197619 C4.45714291,15.6619047 5.0761905,15.9404762 5.75714287,15.9404762 C6.43809524,15.9404762 7.05714286,15.6619048 7.52142857,15.197619 C7.98571428,14.7333333 8.26428573,14.1142857 8.26428573,13.4333333 C8.26428573,12.752381 7.98571431,12.1333333 7.52142857,11.6690476 C7.08809524,11.2047619 6.46904762,10.9261905 5.75714287,10.9261905 Z" id="路径" fill="#12A86D" transform="translate(5.757143, 13.433333) scale(-1, 1) translate(-5.757143, -13.433333) "></path>
                    <path d="M6.53095237,13.3095238 C6.46904762,13.3095238 6.40714287,13.3714285 6.40714287,13.4333333 C6.40714287,13.4952381 6.46904762,13.5571428 6.53095237,13.5571428 C6.59285712,13.5571428 6.65476191,13.4952381 6.65476191,13.4333333 C6.65476191,13.3404762 6.59285716,13.3095238 6.53095237,13.3095238 Z" id="路径" fill="#12A86D" transform="translate(6.530952, 13.433333) scale(-1, 1) translate(-6.530952, -13.433333) "></path>
                    <path d="M6.1982143,13.897619 C6.26011905,13.8357143 6.32202383,13.8357143 6.38392859,13.897619 C6.44583334,13.9595238 6.44583334,14.0214286 6.38392859,14.0833333 C6.32202383,14.1452381 6.26011905,14.1452381 6.1982143,14.0833333 C6.16726192,14.0214286 6.16726192,13.9595238 6.1982143,13.897619 Z" id="路径" fill="#12A86D" transform="translate(6.302679, 13.990476) scale(-1, 1) translate(-6.302679, -13.990476) "></path>
                    <path d="M5.63333333,14.2071429 C5.63333333,14.1452381 5.69523809,14.0833333 5.75714287,14.0833333 C5.81904766,14.0833333 5.88095241,14.1452381 5.88095241,14.2071429 C5.88095241,14.2690476 5.81904766,14.3309524 5.75714287,14.3309524 C5.69523809,14.3309524 5.63333333,14.3 5.63333333,14.2071429 Z" id="路径" fill="#12A86D" transform="translate(5.757143, 14.207143) scale(-1, 1) translate(-5.757143, -14.207143) "></path>
                    <path d="M5.0761905,14.0833333 C5.01428575,14.0214286 5.01428575,13.9595238 5.0761905,13.897619 C5.13809525,13.8357143 5.20000004,13.8357143 5.26190479,13.897619 C5.32380954,13.9595238 5.32380954,14.0214286 5.26190479,14.0833333 C5.20000004,14.1142857 5.10714288,14.1142857 5.0761905,14.0833333 Z" id="路径" fill="#12A86D" transform="translate(5.169048, 13.978869) scale(-1, 1) translate(-5.169048, -13.978869) "></path>
                    <path d="M4.95238099,13.5571428 C5.01428575,13.5571428 5.0761905,13.4952381 5.0761905,13.4333333 C5.0761905,13.3714286 5.01428575,13.3095238 4.95238099,13.3095238 C4.89047624,13.3095238 4.82857146,13.3714285 4.82857146,13.4333333 C4.82857146,13.4952381 4.89047621,13.5571428 4.95238099,13.5571428 Z" id="路径" fill="#12A86D" transform="translate(4.952381, 13.433333) scale(-1, 1) translate(-4.952381, -13.433333) "></path>
                    <path d="M5.29285716,12.9380952 C5.35476192,12.8761905 5.35476192,12.8142857 5.29285716,12.752381 C5.23095241,12.6904762 5.16904763,12.6904762 5.10714288,12.752381 C5.04523812,12.8142857 5.04523812,12.8761905 5.10714288,12.9380952 C5.16904763,13 5.26190479,13 5.29285716,12.9380952 Z" id="路径" fill="#12A86D" transform="translate(5.200000, 12.845238) scale(-1, 1) translate(-5.200000, -12.845238) "></path>
                    <path d="M5.88095241,12.6285714 C5.88095241,12.5666667 5.81904766,12.5047619 5.75714287,12.5047619 C5.69523809,12.5047619 5.63333333,12.5666666 5.63333333,12.6285714 C5.63333333,12.6904762 5.69523809,12.752381 5.75714287,12.752381 C5.81904766,12.752381 5.88095241,12.6904762 5.88095241,12.6285714 Z" id="路径" fill="#12A86D" transform="translate(5.757143, 12.628571) scale(-1, 1) translate(-5.757143, -12.628571) "></path>
                    <path d="M6.43035715,12.7833333 C6.3684524,12.7214286 6.30654761,12.7214286 6.24464286,12.7833333 C6.18273811,12.8452381 6.18273811,12.9071429 6.24464286,12.9690476 C6.30654761,13.0309524 6.3684524,13.0309524 6.43035715,12.9690476 C6.46130953,12.9071429 6.46130953,12.8142857 6.43035715,12.7833333 Z" id="路径" fill="#12A86D" transform="translate(6.325893, 12.876190) scale(-1, 1) translate(-6.325893, -12.876190) "></path>
                    <path d="M6.43809528,12.6904762 C6.25238099,12.5047619 6.00476195,12.3809524 5.7261905,12.3809524 C5.44761908,12.3809524 5.2,12.5047619 5.01428575,12.6904762 C4.82857146,12.8761905 4.70476192,13.1238095 4.70476192,13.4023809 C4.70476192,13.6809524 4.82857146,13.9285714 5.01428575,14.1142857 C5.20000004,14.3 5.44761908,14.4238095 5.7261905,14.4238095 C6.00476191,14.4238095 6.25238099,14.3 6.43809528,14.1142857 C6.62380957,13.9285714 6.74761907,13.6809524 6.74761907,13.4023809 C6.71666669,13.1238095 6.62380953,12.8761905 6.43809528,12.6904762 Z" id="路径" fill="#E5F4F0" transform="translate(5.726190, 13.402381) scale(-1, 1) translate(-5.726190, -13.402381) "></path>
                </g>
                <rect id="矩形备份-25" fill="#D8D8D8" opacity="0" x="0" y="0" width="32" height="32"></rect>
            </g>
        </g>
    </g>
</svg>