<?xml version="1.0" encoding="UTF-8"?>
<svg width="32px" height="32px" viewBox="0 0 32 32" version="1.1" xmlns="http://www.w3.org/2000/svg" xmlns:xlink="http://www.w3.org/1999/xlink">
    <title>编组 23</title>
    <g id="页面-1" stroke="none" stroke-width="1" fill="none" fill-rule="evenodd">
        <g id="所有应用" transform="translate(-170.000000, -310.000000)">
            <g id="编组-23" transform="translate(170.000000, 310.000000)">
                <g id="编组-11备份" transform="translate(1.000000, 1.000000)">
                    <polygon id="路径-51" fill="#9DE0CA" opacity="0.303958711" points="5.00789944 25.3125 6.05667497 15 23.8628207 15 23.8628207 25.3125"></polygon>
                    <g id="编组-4" fill-rule="nonzero">
                        <rect id="矩形" fill="#000000" opacity="0" x="0" y="0" width="30" height="30"></rect>
                        <path d="M22.5,8.4375 C23.017767,8.4375 23.4375,8.85723305 23.4375,9.375 L23.4375,12.1875 L26.25,12.1875 C26.767767,12.1875 27.1875,12.607233 27.1875,13.125 L27.1875,24.375 C27.1875,24.892767 26.767767,25.3125 26.25,25.3125 L23.4375,25.3125 C23.4375,20.6525974 19.6599026,16.875 15,16.875 C10.3400974,16.875 6.5625,20.6525974 6.5625,25.3125 L3.75,25.3125 C3.23223305,25.3125 2.8125,24.892767 2.8125,24.375 L2.8125,13.125 C2.8125,12.607233 3.23223305,12.1875 3.75,12.1875 L6.5625,12.1875 L6.5625,9.375 C6.5625,8.85723305 6.98223305,8.4375 7.5,8.4375 C8.01776695,8.4375 8.4375,8.85723305 8.4375,9.375 L8.4375,12.1875 L14.0625,12.1875 L14.0625,9.375 C14.0625,8.85723305 14.482233,8.4375 15,8.4375 C15.517767,8.4375 15.9375,8.85723305 15.9375,9.375 L15.9375,12.1875 L21.5625,12.1875 L21.5625,9.375 C21.5625,8.85723305 21.982233,8.4375 22.5,8.4375 Z" id="路径" fill="#1DB080"></path>
                        <path d="M26.25,4.6875 C26.767767,4.6875 27.1875,5.10723305 27.1875,5.625 L27.1875,6.5625 C27.1875,7.08026695 26.767767,7.5 26.25,7.5 L3.75,7.5 C3.23223305,7.5 2.8125,7.08026695 2.8125,6.5625 L2.8125,5.625 C2.8125,5.10723305 3.23223305,4.6875 3.75,4.6875 L26.25,4.6875 Z" id="路径" fill="#333333"></path>
                    </g>
                    <path d="M6.5625,25.3125 C7.15152544,19.6875 9.96402544,16.875 15,16.875 C20.0359746,16.875 22.8484746,19.6875 23.4375,25.3125" id="路径-52" stroke="#333333" stroke-width="2"></path>
                    <rect id="矩形" x="0.483870968" y="0" width="29.0322581" height="29.0322581"></rect>
                </g>
                <rect id="矩形备份-8" fill="#D8D8D8" opacity="0" x="0" y="0" width="32" height="32"></rect>
            </g>
        </g>
    </g>
</svg>