<?xml version="1.0" encoding="UTF-8"?>
<svg width="32px" height="32px" viewBox="0 0 32 32" version="1.1" xmlns="http://www.w3.org/2000/svg" xmlns:xlink="http://www.w3.org/1999/xlink">
    <title>编组 28</title>
    <g id="页面-1" stroke="none" stroke-width="1" fill="none" fill-rule="evenodd">
        <g id="所有应用" transform="translate(-99.000000, -609.000000)">
            <g id="编组-28" transform="translate(99.000000, 609.000000)">
                <g id="编组-5" transform="translate(2.000000, 3.333333)" fill-rule="nonzero">
                    <rect id="矩形" fill="#000000" opacity="0" x="1.20435288e-08" y="0" width="24.6666667" height="24.6666667"></rect>
                    <path d="M14,0.564990423 C15.6240484,0.564990423 17.0868956,1.54694323 17.702,3.04999999 L25.4546667,22 L26.6666667,22 C27.4030463,22 28,22.5969536 28,23.3333333 C28,24.069713 27.4030463,24.6666667 26.6666667,24.6666667 L1.33333334,24.6666667 C0.596953668,24.6666667 0,24.069713 0,23.3333333 C0,22.5969536 0.596953668,22 1.33333334,22 L2.54533335,22 L10.298,3.04999999 C10.9131044,1.54694323 12.3759516,0.564990423 14,0.564990423 Z M14.0040857,3.03526915 C13.4585202,3.03629951 12.9686211,3.36959073 12.7673333,3.87666666 L5.57933335,22 L22.512,22 L15.244,3.87199999 C15.0408028,3.36568621 14.5496512,3.03424354 14.0040857,3.03526915 Z" id="形状结合" fill="#333333"></path>
                    <path d="M13.3333333,9.99999999 L14.6666667,9.99999999 C15.4030463,9.99999999 16,10.5969537 16,11.3333333 C16,12.069713 15.4030463,12.6666667 14.6666667,12.6666667 L13.3333333,12.6666667 C12.5969537,12.6666667 12,12.069713 12,11.3333333 C12,10.5969537 12.5969537,9.99999999 13.3333333,9.99999999 L13.3333333,9.99999999 Z" id="路径" fill="#12A86D"></path>
                    <path d="M10.6666667,15.3333333 L17.3333334,15.3333333 C18.069713,15.3333333 18.6666667,15.930287 18.6666667,16.6666667 C18.6666667,17.4030463 18.069713,18 17.3333334,18 L10.6666667,18 C9.93028702,18 9.33333335,17.4030463 9.33333335,16.6666667 C9.33333335,15.930287 9.93028702,15.3333333 10.6666667,15.3333333 Z" id="路径" fill="#12A86D"></path>
                </g>
                <rect id="矩形备份-13" fill="#D8D8D8" opacity="0" x="0" y="0" width="32" height="32"></rect>
            </g>
        </g>
    </g>
</svg>