<?xml version="1.0" encoding="UTF-8"?>
<svg width="33px" height="32px" viewBox="0 0 33 32" version="1.1" xmlns="http://www.w3.org/2000/svg" xmlns:xlink="http://www.w3.org/1999/xlink">
    <title>编组 33</title>
    <g id="页面-1" stroke="none" stroke-width="1" fill="none" fill-rule="evenodd">
        <g id="所有应用" transform="translate(-26.000000, -828.000000)">
            <g id="编组-33" transform="translate(26.000000, 828.000000)">
                <g id="编组-14" transform="translate(2.000000, 2.000000)">
                    <rect id="矩形" fill="#12A86D" x="2" y="3" width="22" height="10"></rect>
                    <g id="编组-15" fill-rule="nonzero">
                        <rect id="矩形" fill="#000000" opacity="0" x="0" y="0" width="26" height="26"></rect>
                        <path d="M21.3958418,3.25 C22.7035605,3.25 23.7707539,4.27984375 23.8306758,5.57273438 L23.8333418,5.6875 L23.8333418,20.3125 C23.8333418,21.6202187 22.803498,22.6874375 21.510582,22.7473594 L21.3958164,22.75 L4.60418359,22.75 C3.29646484,22.75 2.22927148,21.7201563 2.16934961,20.4272656 L2.16668359,20.3125 L2.16668359,5.6875 C2.16668359,4.37978125 3.19652734,3.3125625 4.48944336,3.25264063 L4.60420898,3.25 L21.3958672,3.25 L21.3958418,3.25 Z" id="路径" stroke="#333333" stroke-width="2"></path>
                        <polygon id="路径" fill="#333333" points="10.8333418 8.6666582 10.8333418 10.2916582 8.6666582 10.2916582 8.6666582 12.1869668 10.8333418 12.1875 10.8333418 13.8125 8.6666582 13.8119668 8.6666582 15.7083418 10.8333418 15.7083418 10.8333418 17.3333418 7.0416582 17.3333418 7.0416582 8.6666582"></polygon>
                        <path d="M18.6875,8.6666582 L18.6875,10.2916582 C17.9443926,10.2916582 17.7168672,10.3348984 17.551168,10.4981094 C17.270373,10.7747148 17.0783438,11.4911621 17.0634141,12.8294766 L17.0625,13 C17.0625,14.4483574 17.258668,15.2137578 17.551168,15.5018906 C17.7071172,15.6555039 17.917834,15.702832 18.5616133,15.7078594 L18.6875,15.7083418 L18.6875,17.3333418 C16.4130078,17.3333418 15.4707363,16.4444414 15.4383633,13.1773027 L15.4375,13 C15.4375,9.64742188 16.3398828,8.69974219 18.5669199,8.66752148 L18.6875,8.6666582 Z" id="路径" fill="#333333"></path>
                        <polygon id="路径" fill="#333333" points="15.1666582 8.6666582 15.1666582 10.2916582 14.0833418 10.291125 14.0833418 17.3333418 12.4583418 17.3333418 12.4583418 10.291125 11.375 10.2916582 11.375 8.6666582 15.1666582 8.6666582"></polygon>
                    </g>
                    <circle id="椭圆形" stroke="#FFFFFF" stroke-width="1.5" fill="#E5F4F0" cx="24" cy="20" r="6.25"></circle>
                    <g id="加" transform="translate(20.000000, 16.000000)" fill-rule="nonzero">
                        <rect id="矩形" fill="#000000" opacity="0" x="0" y="0" width="8" height="8"></rect>
                        <path d="M7.232,3 C7.33333333,3 7.43066667,3.02 7.524,3.06 C7.61733333,3.1 7.69733333,3.15333333 7.764,3.22 C7.83066667,3.28666667 7.884,3.36666667 7.924,3.46 C7.964,3.55333333 7.984,3.65066667 7.984,3.752 C7.984,3.85866667 7.964,3.95733333 7.924,4.048 C7.884,4.13866667 7.83066667,4.21733333 7.764,4.284 C7.69733333,4.35066667 7.61733333,4.404 7.524,4.444 C7.43066667,4.484 7.33333333,4.504 7.232,4.504 L4.984,4.504 L4.984,6.752 C4.984,6.85866667 4.964,6.95733333 4.924,7.048 C4.884,7.13866667 4.83066667,7.21733333 4.764,7.284 C4.69733333,7.35066667 4.61733333,7.404 4.524,7.444 C4.43066667,7.484 4.33333333,7.504 4.232,7.504 C4.12533333,7.504 4.02666667,7.484 3.936,7.444 C3.84533333,7.404 3.76666667,7.35066667 3.7,7.284 C3.63333333,7.21733333 3.58,7.13866667 3.54,7.048 C3.5,6.95733333 3.48,6.85866667 3.48,6.752 L3.48,4.504 L1.232,4.504 C1.12533333,4.504 1.02666667,4.484 0.936,4.444 C0.845333333,4.404 0.766666667,4.35066667 0.7,4.284 C0.633333333,4.21733333 0.58,4.13866667 0.54,4.048 C0.5,3.95733333 0.48,3.85866667 0.48,3.752 C0.48,3.65066667 0.5,3.55333333 0.54,3.46 C0.58,3.36666667 0.633333333,3.28666667 0.7,3.22 C0.766666667,3.15333333 0.845333333,3.1 0.936,3.06 C1.02666667,3.02 1.12533333,3 1.232,3 L3.48,3 L3.48,0.752 C3.48,0.650666667 3.5,0.553333333 3.54,0.46 C3.58,0.366666667 3.63333333,0.286666667 3.7,0.22 C3.76666667,0.153333333 3.84533333,0.1 3.936,0.06 C4.02666667,0.02 4.12533333,4.4408921e-16 4.232,4.4408921e-16 C4.44,4.4408921e-16 4.61733333,0.0733333333 4.764,0.22 C4.91066667,0.366666667 4.984,0.544 4.984,0.752 L4.984,3 L7.232,3 Z" id="路径" fill="#12A86D"></path>
                    </g>
                </g>
                <rect id="矩形备份-20" fill="#D8D8D8" opacity="0" x="0" y="0" width="32" height="32"></rect>
            </g>
        </g>
    </g>
</svg>