<?xml version="1.0" encoding="UTF-8"?>
<svg width="32px" height="32px" viewBox="0 0 32 32" version="1.1" xmlns="http://www.w3.org/2000/svg" xmlns:xlink="http://www.w3.org/1999/xlink">
    <title>编组 36</title>
    <g id="页面-1" stroke="none" stroke-width="1" fill="none" fill-rule="evenodd">
        <g id="所有应用" transform="translate(-245.000000, -828.000000)">
            <g id="编组-36" transform="translate(245.000000, 828.000000)">
                <g id="编组-18" transform="translate(3.000000, 4.000000)">
                    <path d="M3,0 L23,0 C24.6568542,-3.04359188e-16 26,1.34314575 26,3 L26,8 L26,8 L0,8 L0,3 C-2.02906125e-16,1.34314575 1.34314575,3.04359188e-16 3,0 Z" id="矩形" fill="#12A86D"></path>
                    <path d="M22.8653516,2.70019531 C24.1584375,2.70019531 25.2073437,3.80351563 25.2319531,5.16386719 L25.2319531,5.16386719 L25.2319531,12.1611328 C25.2319531,13.5337891 24.1097656,14.573125 22.8166797,14.573125 L22.8166797,14.573125 L20.7672656,14.6371094 L20.7672656,23.4721484 C20.7672656,24.9093359 19.1816016,25.7176172 18.1080859,24.8322266 L18.1080859,24.8322266 L16.9003125,23.8442969 C16.4732031,23.4978516 15.8754687,23.485 15.4486328,23.8314453 L15.4486328,23.8314453 L13.6064844,25.204375 C13.2649609,25.4482813 12.5939453,25.4354297 12.2524219,25.1915234 C11.4960937,24.64 10.3859375,23.7931641 10.3859375,23.7931641 C9.97140625,23.4595703 9.39773437,23.4595703 8.97089844,23.7803125 L8.97089844,23.7803125 L7.72675781,24.7296875 C6.64121094,25.5636719 5.11625,24.7425391 5.11625,23.3313281 L5.11625,23.3313281 L5.11625,14.6371094 L3.12808594,14.6371094 C1.835,14.6371094 0.78609375,13.5335156 0.773789062,12.1608594 L0.773789062,12.1608594 L0.773789062,5.16359375 C0.773789062,3.80351563 1.835,2.70019531 3.12808594,2.70019531 L3.12808594,2.70019531 Z M22.2244141,4.98667969 L3.65226562,4.98667969 C3.213125,4.98667969 2.85929687,5.32902344 2.85929687,5.79085938 L2.85929687,5.79085938 L2.85929687,11.475625 C2.85929687,11.9374609 3.213125,12.3096094 3.65226562,12.3096094 L3.65226562,12.3096094 L5.11625,12.3096094 L5.11625,9.17328125 L4.87234375,9.17328125 C4.54285156,9.17328125 4.23796875,8.62804688 4.14035156,8.29445313 C3.95742187,7.73007813 4.35992187,6.85699219 4.87234375,6.85699219 L4.87234375,6.85699219 L20.9988672,6.85699219 C21.4866797,6.85699219 21.8651172,7.67867188 21.7551953,8.20476563 C21.6821875,8.58976563 21.3403906,9.17355469 20.9745312,9.17355469 L20.9745312,9.17355469 L20.7549609,9.17355469 L20.7549609,12.3227344 L22.2367187,12.3227344 C22.6758594,12.3227344 23.0296875,11.9505859 23.0296875,11.48875 L23.0296875,11.48875 L23.0173828,5.79085938 C23.0173828,5.32902344 22.6635547,4.98667969 22.2244141,4.98667969 L22.2244141,4.98667969 Z" id="形状结合" fill="#333333" fill-rule="nonzero"></path>
                    <path d="M18.4616406,23.2028125 L16.9979297,21.9326953 C16.5710937,21.58625 15.9853906,21.5733984 15.54625,21.9198437 L13.7287109,23.4467187 C13.2772656,23.8828516 12.5819141,23.8828516 12.1427734,23.4467187 L10.4348828,21.9198437 C10.0200781,21.58625 9.44695312,21.58625 9.01984375,21.9069922 L7.56816406,23.1128516 C7.20230469,23.3950391 6.67757812,23.1771094 6.67757812,22.7024219 L6.67757812,9.17355469 L19.1933595,9.17355469 L19.1933595,22.9332031 C19.1936328,23.4210156 18.8275,23.5107031 18.4616406,23.2028125 L18.4616406,23.2028125 Z" id="路径" fill="#E5F4F0" fill-rule="nonzero"></path>
                    <text id="ETC" font-family="YouSheBiaoTiHei" font-size="5" font-weight="normal" fill="#12A86D">
                        <tspan x="7.5" y="17">ETC</tspan>
                    </text>
                </g>
                <rect id="矩形备份-23" fill="#D8D8D8" opacity="0" x="0" y="0" width="32" height="32"></rect>
            </g>
        </g>
    </g>
</svg>