<?xml version="1.0" encoding="UTF-8"?>
<svg width="32px" height="32px" viewBox="0 0 32 32" version="1.1" xmlns="http://www.w3.org/2000/svg" xmlns:xlink="http://www.w3.org/1999/xlink">
    <title>编组 34</title>
    <g id="页面-1" stroke="none" stroke-width="1" fill="none" fill-rule="evenodd">
        <g id="所有应用" transform="translate(-100.000000, -828.000000)">
            <g id="编组-34" transform="translate(100.000000, 828.000000)">
                <g id="编组-17" transform="translate(1.000000, 2.000000)">
                    <rect id="矩形" fill="#12A86D" x="2" y="3" width="22" height="10"></rect>
                    <g id="编组-15" fill-rule="nonzero">
                        <rect id="矩形" fill="#000000" opacity="0" x="0" y="0" width="26" height="26"></rect>
                        <path d="M21.3958418,3.25 C22.7035605,3.25 23.7707539,4.27984375 23.8306758,5.57273438 L23.8333418,5.6875 L23.8333418,20.3125 C23.8333418,21.6202187 22.803498,22.6874375 21.510582,22.7473594 L21.3958164,22.75 L4.60418359,22.75 C3.29646484,22.75 2.22927148,21.7201563 2.16934961,20.4272656 L2.16668359,20.3125 L2.16668359,5.6875 C2.16668359,4.37978125 3.19652734,3.3125625 4.48944336,3.25264063 L4.60420898,3.25 L21.3958672,3.25 L21.3958418,3.25 Z" id="路径" stroke="#333333" stroke-width="2"></path>
                        <polygon id="路径" fill="#333333" points="10.8333418 8.6666582 10.8333418 10.2916582 8.6666582 10.2916582 8.6666582 12.1869668 10.8333418 12.1875 10.8333418 13.8125 8.6666582 13.8119668 8.6666582 15.7083418 10.8333418 15.7083418 10.8333418 17.3333418 7.0416582 17.3333418 7.0416582 8.6666582"></polygon>
                        <path d="M18.6875,8.6666582 L18.6875,10.2916582 C17.9443926,10.2916582 17.7168672,10.3348984 17.551168,10.4981094 C17.270373,10.7747148 17.0783438,11.4911621 17.0634141,12.8294766 L17.0625,13 C17.0625,14.4483574 17.258668,15.2137578 17.551168,15.5018906 C17.7071172,15.6555039 17.917834,15.702832 18.5616133,15.7078594 L18.6875,15.7083418 L18.6875,17.3333418 C16.4130078,17.3333418 15.4707363,16.4444414 15.4383633,13.1773027 L15.4375,13 C15.4375,9.64742188 16.3398828,8.69974219 18.5669199,8.66752148 L18.6875,8.6666582 Z" id="路径" fill="#333333"></path>
                        <polygon id="路径" fill="#333333" points="15.1666582 8.6666582 15.1666582 10.2916582 14.0833418 10.291125 14.0833418 17.3333418 12.4583418 17.3333418 12.4583418 10.291125 11.375 10.2916582 11.375 8.6666582 15.1666582 8.6666582"></polygon>
                    </g>
                    <circle id="椭圆形" stroke="#FFFFFF" stroke-width="1.5" fill="#E5F4F0" cx="24" cy="20" r="6.25"></circle>
                    <g id="箭头" transform="translate(19.000000, 15.000000)" fill-rule="nonzero">
                        <rect id="矩形" fill="#000000" opacity="0" x="0" y="0" width="10" height="10"></rect>
                        <path d="M7.89473781,7.38886277 L6.13056152,5.62465337 L7.59636464,4.81040288 C7.91181338,4.63515029 7.88395324,4.1723037 7.54873278,4.03659529 L2.59142438,2.03242465 C2.24002706,1.89042512 1.89042718,2.24003157 2.03242404,2.59143548 L4.03655707,7.54883692 C4.17226293,7.88406367 4.63510083,7.91192434 4.81035013,7.59646968 L5.62458534,6.13063905 L7.38876163,7.89484845 C7.45886135,7.96494948 7.55053021,8 7.64219907,8 C7.73386794,8 7.8255368,7.96494948 7.89563652,7.89484845 C8.03493725,7.75554511 8.03493725,7.52906484 7.89473781,7.38886277 L7.89473781,7.38886277 Z" id="路径" fill="#12A86D"></path>
                    </g>
                </g>
                <rect id="矩形备份-21" fill="#D8D8D8" opacity="0" x="0" y="0" width="32" height="32"></rect>
            </g>
        </g>
    </g>
</svg>