<?xml version="1.0" encoding="UTF-8"?>
<svg width="32px" height="32px" viewBox="0 0 32 32" version="1.1" xmlns="http://www.w3.org/2000/svg" xmlns:xlink="http://www.w3.org/1999/xlink">
    <title>编组 25</title>
    <g id="页面-1" stroke="none" stroke-width="1" fill="none" fill-rule="evenodd">
        <g id="所有应用" transform="translate(-25.000000, -461.000000)">
            <g id="编组-25" transform="translate(25.000000, 461.000000)">
                <g id="编组-2" transform="translate(3.000000, 2.000000)">
                    <path d="M15.2230862,9.06663869 C10.244655,9.87786866 7.75543939,12.4445697 7.75543939,16.7667418 L23.8346021,16.9245496 L21.173033,11" id="路径-73" fill-opacity="0.361125813" fill="#999999"></path>
                    <circle id="椭圆形" stroke="#999999" stroke-width="2" cx="13.1" cy="3" r="2"></circle>
                    <rect id="矩形" fill="#999999" x="0" y="24" width="26" height="2.5" rx="1.25"></rect>
                    <path d="M13,8.27828675 C16.2350093,8.27828675 19.1589681,9.69509755 21.2773187,11.9714451 C23.1199456,13.951504 24.3551412,16.5803344 24.6704496,19.5097472 L24.693,19.752 L24.674034,19.7522804 C21.1538018,19.7639511 18.777713,19.7716945 16.7055985,19.7755091 L16.4115593,19.7760273 L15.8215297,19.7769198 L14.9547922,19.7778402 L12.9331408,19.778036 L12.0300794,19.777283 L11.0819614,19.7760273 C8.64169704,19.7722587 5.63485421,19.7637774 0.9573314,19.7505845 L1.306,19.751 L1.32955038,19.5097472 C1.63172094,16.7023933 2.77871849,14.1710951 4.49553922,12.2223063 L4.72268126,11.9714451 C6.84103186,9.69509755 9.76499068,8.27828675 13,8.27828675 Z" id="椭圆形" stroke="#999999" stroke-width="2.5"></path>
                    <path d="M6.05502119,16.1999999 C6.87795567,14.3169127 8.4628233,12.9835794 10.8096241,12.1999999" id="路径-72" stroke="#999999" stroke-width="2.5" stroke-linecap="round"></path>
                    <line x1="13" y1="20.4951887" x2="13" y2="25.25" id="路径-74" stroke="#999999" stroke-width="2.5" stroke-linecap="round"></line>
                </g>
                <rect id="矩形备份-10" fill="#D8D8D8" opacity="0" x="0" y="0" width="32" height="32"></rect>
            </g>
        </g>
    </g>
</svg>