<?xml version="1.0" encoding="UTF-8"?>
<svg width="32px" height="32px" viewBox="0 0 32 32" version="1.1" xmlns="http://www.w3.org/2000/svg" xmlns:xlink="http://www.w3.org/1999/xlink">
    <title>编组 37</title>
    <g id="页面-1" stroke="none" stroke-width="1" fill="none" fill-rule="evenodd">
        <g id="所有应用" transform="translate(-317.000000, -828.000000)">
            <g id="编组-37" transform="translate(317.000000, 828.000000)">
                <g id="编组-21" transform="translate(1.000000, 7.000000)">
                    <path d="M30,4.1836806 L30,17.6276228 L20.9464463,17.6276228 C20.6638016,18.4177974 19.934876,18.9987221 19.0571901,19.0806661 L18.8429752,19.0909091 C17.8974603,19.0909091 17.0546758,18.5044909 16.7395041,17.6276228 L13.6363636,17.6276228 L13.6363636,4.09090909 L13.6363636,4.1836806 L30,4.1836806 Z" id="路径备份" fill="#8DF1C9" fill-rule="nonzero" transform="translate(21.818182, 11.590909) scale(-1, 1) translate(-21.818182, -11.590909) "></path>
                    <path d="M8.86363636,4.4055944 L8.86363636,17.6223776 L6.52068183,17.6223776 C6.20739826,18.5020392 5.37053564,19.0900227 4.43181818,19.0900227 C3.49310072,19.0900227 2.6562381,18.5020392 2.34295453,17.6223776 L2.34295453,17.6223776 L-1.23989707e-12,17.6223776 L-1.23989707e-12,7.39552446 L3.00772726,4.4055944 L8.86363636,4.4055944 Z M5.90909092,7.34265733 L4.43181818,7.34265733 L2.95454544,8.81118881 L2.95454544,10.2797203 L5.90909092,10.2797203 L5.90909092,7.34265733 Z" id="形状结合" fill="#444444" fill-rule="nonzero"></path>
                    <path d="M26.5909091,0 L26.5909091,17.6223776 L17.6002273,17.6223776 C17.3195455,18.4153846 16.5956818,18.9983916 15.7240909,19.0806294 L15.5113636,19.0909091 C14.5724148,19.0909091 13.7354829,18.5023889 13.4225,17.6223776 L10.3409091,17.6223776 L10.3409091,0 L26.5909091,0 Z" id="路径" fill="#12A86D" fill-rule="nonzero" transform="translate(18.465909, 9.545455) scale(-1, 1) translate(-18.465909, -9.545455) "></path>
                    <text id="绿通" font-family="YouSheBiaoTiHei" font-size="7" font-weight="normal" fill="#FFFFFF">
                        <tspan x="12.84689" y="11.453472">绿通</tspan>
                    </text>
                </g>
                <rect id="矩形备份-24" fill="#D8D8D8" opacity="0" x="0" y="0" width="32" height="32"></rect>
            </g>
        </g>
    </g>
</svg>