<?xml version="1.0" encoding="UTF-8"?>
<svg width="32px" height="32px" viewBox="0 0 32 32" version="1.1" xmlns="http://www.w3.org/2000/svg" xmlns:xlink="http://www.w3.org/1999/xlink">
    <title>编组 39</title>
    <defs>
        <linearGradient x1="84.4189119%" y1="39.3972104%" x2="5.41977485%" y2="69.9238281%" id="linearGradient-1">
            <stop stop-color="#12A86D" offset="0%"></stop>
            <stop stop-color="#12A86D" offset="100%"></stop>
        </linearGradient>
    </defs>
    <g id="页面-1" stroke="none" stroke-width="1" fill="none" fill-rule="evenodd">
        <g id="所有应用" transform="translate(-99.000000, -901.000000)">
            <g id="编组-39" transform="translate(99.000000, 901.000000)">
                <g id="货车备份" transform="translate(16.000000, 16.000000) scale(-1, 1) translate(-16.000000, -16.000000) translate(2.000000, 2.000000)" fill-rule="nonzero">
                    <rect id="矩形" fill="#000000" opacity="0" x="0" y="0" width="28" height="28"></rect>
                    <path d="M2.44179687,19.3921875 L0.39375,19.3921875 C0.177734375,19.3921875 0,19.5699219 0,19.7859375 L0,20.9835937 C0,21.1996094 0.177734375,21.3773437 0.39375,21.3773437 L1.34804687,21.3773437 C1.465625,20.584375 1.86210937,19.8871094 2.44179687,19.3921875 L2.44179687,19.3921875 Z M27.60625,19.3921875 L26.6492187,19.3921875 L26.6492187,14.0382812 C26.6492187,13.4121094 26.4605469,12.796875 26.1105469,12.2773437 L23.7097656,8.72265625 C23.121875,7.85585937 22.1457031,7.33632812 21.0984375,7.33632812 L17.3796875,7.33632812 C16.9421875,7.33632812 16.5921875,7.69179687 16.5921875,8.12382812 L16.5921875,19.1515625 L8.44101562,6.846875 C8.56132812,6.5734375 8.62695312,6.26992187 8.62695312,5.95273437 C8.62695312,4.70859375 7.6234375,3.70234375 6.37929687,3.70234375 C5.140625,3.70234375 4.13164063,4.71132812 4.13164063,5.95273437 C4.13164063,6.25625 4.19179688,6.54609375 4.30390625,6.81132812 L4.30390625,9.74257812 C4.30390625,9.96679687 4.484375,10.1472656 4.70859375,10.1472656 C5.18984375,10.1472656 5.58085938,10.5382812 5.58085938,11.0195312 C5.58085938,11.5007812 5.18984375,11.8917969 4.70859375,11.8917969 C4.22734375,11.8917969 3.83632813,11.5007812 3.83632813,11.0195312 C3.83632813,10.7953125 3.65585938,10.6148437 3.43164063,10.6148437 C3.20742188,10.6148437 3.02695313,10.7953125 3.02695313,11.0195312 C3.02695313,11.9464844 3.78164063,12.7011719 4.70859375,12.7011719 C5.63554688,12.7011719 6.39023438,11.9464844 6.39023438,11.0195312 C6.39023438,10.2320312 5.84609375,9.5703125 5.11328125,9.38710937 L5.11328125,7.80664062 C5.47421875,8.05273437 5.90898438,8.19765625 6.37929687,8.19765625 C6.57617188,8.19765625 6.76484375,8.1703125 6.9453125,8.12382812 L8.88945312,19.3867187 L6.66640625,19.3867187 C7.24609375,19.884375 7.64257812,20.5816406 7.76015625,21.371875 L18.0140625,21.371875 C18.24375,19.8078125 19.5890625,18.5992187 21.2160156,18.5992187 C22.8429687,18.5992187 24.1855469,19.8078125 24.4152344,21.371875 L27.60625,21.371875 C27.8222656,21.371875 28,21.1941406 28,20.978125 L28,19.7804687 C28,19.5699219 27.8222656,19.3921875 27.60625,19.3921875 Z M6.37929687,7.07929687 C5.75859375,7.07929687 5.25546875,6.5734375 5.25546875,5.95546875 C5.25546875,5.33476562 5.75859375,4.83164062 6.37929687,4.83164062 C7,4.83164062 7.503125,5.33476562 7.503125,5.95546875 C7.503125,6.5734375 7,7.07929687 6.37929687,7.07929687 L6.37929687,7.07929687 Z M10.4890625,19.3921875 L8.94960938,10.4699219 L14.8613281,19.3921875 L10.4890625,19.3921875 Z M23.6824219,12.9855469 L18.7742187,12.9855469 C18.5582031,12.9855469 18.3804687,12.8132812 18.3804687,12.5917969 L18.3804687,9.87109375 C18.3804687,9.65507812 18.5582031,9.47734375 18.7742187,9.47734375 L21.7628906,9.47734375 C21.8941406,9.47734375 22.0117187,9.54023437 22.0855469,9.64414062 L24.0050781,12.3703125 C24.1855469,12.6273437 24.0023437,12.9855469 23.6824219,12.9855469 Z" id="形状" fill="url(#linearGradient-1)"></path>
                    <path d="M21.2160156,19.3921875 C19.8597656,19.3921875 18.7660156,20.4914063 18.7660156,21.8476563 C18.7660156,23.1984375 19.8597656,24.2976563 21.2160156,24.2976563 C22.5667969,24.2976563 23.6660156,23.1984375 23.6660156,21.8476563 C23.6660156,20.4914063 22.5667969,19.3921875 21.2160156,19.3921875 Z M21.2160156,23.0699219 C20.5378906,23.0699219 19.9910156,22.5175781 19.9910156,21.8449219 C19.9910156,21.1667969 20.5378906,20.6199219 21.2160156,20.6199219 C21.8941406,20.6199219 22.4410156,21.1667969 22.4410156,21.8449219 C22.4410156,22.5203125 21.8941406,23.0699219 21.2160156,23.0699219 Z M4.55546875,19.3921875 C3.2046875,19.3921875 2.10546875,20.4914063 2.10546875,21.8476563 C2.10546875,23.1984375 3.2046875,24.2976563 4.55546875,24.2976563 C5.91171875,24.2976563 7.00546875,23.1984375 7.00546875,21.8476563 C7.00546875,20.4914063 5.90898437,19.3921875 4.55546875,19.3921875 Z M4.55546875,23.0699219 C3.87734375,23.0699219 3.33046875,22.5175781 3.33046875,21.8449219 C3.33046875,21.1667969 3.87734375,20.6199219 4.55546875,20.6199219 C5.23359375,20.6199219 5.78046875,21.1667969 5.78046875,21.8449219 C5.78046875,22.5203125 5.23085937,23.0699219 4.55546875,23.0699219 L4.55546875,23.0699219 Z" id="形状" fill="#333333"></path>
                </g>
                <rect id="矩形备份-26" fill="#D8D8D8" opacity="0" x="0" y="0" width="32" height="32"></rect>
            </g>
        </g>
    </g>
</svg>