<?xml version="1.0" encoding="UTF-8"?>
<svg width="32px" height="32px" viewBox="0 0 32 32" version="1.1" xmlns="http://www.w3.org/2000/svg" xmlns:xlink="http://www.w3.org/1999/xlink">
    <title>编组 24</title>
    <g id="页面-1" stroke="none" stroke-width="1" fill="none" fill-rule="evenodd">
        <g id="所有应用" transform="translate(-241.000000, -310.000000)">
            <g id="编组-24" transform="translate(241.000000, 310.000000)">
                <g id="直播_2" transform="translate(2.000000, 2.000000)" fill-rule="nonzero">
                    <rect id="矩形" fill="#000000" opacity="0" x="0" y="0" width="28" height="28"></rect>
                    <path d="M22.8208203,22.1951953 L21.8074609,22.1951953 C21.1293359,22.1951953 20.5794531,21.6453125 20.5794531,20.9671875 C20.5794531,20.2890625 21.1293359,19.7391797 21.8074609,19.7391797 L22.8208203,19.7391797 C23.3742578,19.7391797 23.8246094,19.2888281 23.8246094,18.7353906 L23.8246094,6.8053125 C23.8246094,6.251875 23.3742578,5.80152344 22.8208203,5.80152344 L5.17917969,5.80152344 C4.62574219,5.80152344 4.17539063,6.251875 4.17539063,6.8053125 L4.17539063,18.7353906 C4.17539063,19.2888281 4.62574219,19.7391797 5.17917969,19.7391797 L6.22316406,19.7391797 C6.90128906,19.7391797 7.45117188,20.2890625 7.45117188,20.9671875 C7.45117188,21.6453125 6.90128906,22.1951953 6.22316406,22.1951953 L5.17917969,22.1951953 C3.27113281,22.1951953 1.71910156,20.6431641 1.71910156,18.7351172 L1.71910156,6.80503906 C1.71910156,4.89699219 3.27113281,3.34496094 5.17917969,3.34496094 L22.8210938,3.34496094 C24.7291406,3.34496094 26.2811719,4.89699219 26.2811719,6.80503906 L26.2811719,18.7351172 C26.2808984,20.6431641 24.7291406,22.1951953 22.8208203,22.1951953 Z" id="路径" fill="#999999"></path>
                    <path d="M19.5792188,24.6550391 C19.3670313,24.6550391 19.1515625,24.5998047 18.9555078,24.4841406 L14.5353906,21.8703516 C14.1946875,21.6546094 13.8009375,21.6551563 13.4960547,21.8482031 L9.07292969,24.4543359 C8.48941406,24.7991406 7.73636719,24.6041797 7.3915625,24.0190234 C7.04730469,23.4349609 7.24226563,22.6819141 7.826875,22.3376563 L12.2152734,19.753125 C13.2857813,19.0730859 14.7139453,19.075 15.8197266,19.7771875 L20.2051172,22.3701953 C20.7891797,22.7155469 20.9827734,23.4688672 20.6374219,24.0521094 C20.4085547,24.4395703 19.9989453,24.6550391 19.5792188,24.6550391 Z M12.4403125,17.3036722 C12.0080078,17.3036722 11.5748828,17.1956641 11.1841406,16.9780078 C10.3662891,16.5221875 9.85824219,15.658125 9.85824219,14.7221484 L9.85824219,10.8180078 C9.85824219,9.88203125 10.3660156,9.01796875 11.1841406,8.56214844 C12.0025391,8.10632812 13.0052344,8.13039062 13.8009375,8.62339844 L16.9503906,10.5751953 C17.7154687,11.0501563 18.1718359,11.8704688 18.1718359,12.770625 C18.1718359,13.6707813 17.7149219,14.4910938 16.9498437,14.9646875 L13.8009375,16.9170313 C13.3922044,17.1699981 12.9209942,17.303899 12.4403125,17.3036722 L12.4403125,17.3036722 Z M12.4422266,10.6903125 C12.4241797,10.6903125 12.403125,10.6952344 12.3793359,10.7083594 C12.3145312,10.7444531 12.3145312,10.7942188 12.3145312,10.8180078 L12.3145312,14.7224219 C12.3145312,14.7445703 12.3145312,14.79625 12.3793359,14.8320703 C12.4427734,14.8667969 12.4878906,14.8405469 12.5070312,14.8290625 L15.6564844,12.8767188 C15.6745312,12.8660547 15.7158203,12.8400781 15.7158203,12.7700781 C15.7158203,12.6998047 15.6726172,12.6730078 15.6564844,12.6634375 L12.5070312,10.7116406 C12.495,10.7039844 12.4733984,10.6903125 12.4422266,10.6903125 Z" id="形状" fill="#999999"></path>
                </g>
                <rect id="矩形备份-9" fill="#D8D8D8" opacity="0" x="0" y="0" width="32" height="32"></rect>
            </g>
        </g>
    </g>
</svg>