<?xml version="1.0" encoding="UTF-8"?>
<svg width="32px" height="32px" viewBox="0 0 32 32" version="1.1" xmlns="http://www.w3.org/2000/svg" xmlns:xlink="http://www.w3.org/1999/xlink">
    <title>编组 32</title>
    <g id="页面-1" stroke="none" stroke-width="1" fill="none" fill-rule="evenodd">
        <g id="所有应用" transform="translate(-25.000000, -683.000000)">
            <g id="编组-32" transform="translate(25.000000, 683.000000)">
                <g id="编组-8" transform="translate(5.000000, 5.480000)">
                    <rect id="矩形" stroke="#999999" stroke-width="2.5" x="1.25" y="5.92076923" width="19.5" height="14.4230769" rx="2"></rect>
                    <path d="M13.9303365,15.9161538 C15.0354579,15.0088741 15.6758653,13.6541214 15.675529,12.2242788 C15.675529,9.58665865 13.5294712,7.44086538 10.8921154,7.44086538 C8.25475962,7.44086538 6.10817308,9.58665865 6.10817308,12.2242788 C6.10817308,14.861899 8.25396635,17.0076923 10.8915865,17.0076923 C11.4594558,17.0082691 12.0228407,16.9071626 12.5550721,16.7091587 L13.8642308,18.8568029 C14.0117918,19.0987859 14.2772402,19.2436646 14.5605841,19.2368646 C14.8439281,19.2300645 15.1021209,19.0726188 15.2379038,18.8238357 C15.3736868,18.5750526 15.3664312,18.2727282 15.2188702,18.0307452 L13.9303365,15.9161538 Z M10.8921154,15.4211538 C9.2122229,15.4211538 7.82090578,14.1169137 7.71247232,12.4405245 C7.60403887,10.7641352 8.81574237,9.29153004 10.4816359,9.07510997 C12.1475293,8.8586899 13.69528,9.97280801 14.018784,11.621257 C14.342288,13.2697059 13.3304025,14.8861462 11.706274,15.3153846 C11.4405561,15.3854582 11.1669177,15.4210072 10.8921154,15.4211538 L10.8921154,15.4211538 Z" id="形状" fill="#999999" fill-rule="nonzero"></path>
                    <path d="M15.7692308,1.25 C15.9763376,1.25 16.1638376,1.33394661 16.2995609,1.46966991 C16.4352842,1.60539322 16.5192308,1.79289322 16.5192308,2 L16.5192308,2 L16.5192308,5.51923077 L5.48076923,5.51923077 L5.48076923,2 C5.48076923,1.79289322 5.56471584,1.60539322 5.70043914,1.46966991 C5.83616245,1.33394661 6.02366245,1.25 6.23076923,1.25 L6.23076923,1.25 Z" id="矩形备份-7" stroke="#999999" stroke-width="2.5"></path>
                </g>
                <rect id="矩形备份-19" fill="#D8D8D8" opacity="0" x="0" y="0" width="32" height="32"></rect>
            </g>
        </g>
    </g>
</svg>