<?xml version="1.0" encoding="UTF-8"?>
<svg width="32px" height="32px" viewBox="0 0 32 32" version="1.1" xmlns="http://www.w3.org/2000/svg" xmlns:xlink="http://www.w3.org/1999/xlink">
    <title>更多</title>
    <g id="页面-1" stroke="none" stroke-width="1" fill="none" fill-rule="evenodd">
        <g id="首页" transform="translate(-310.000000, -221.000000)" fill-rule="nonzero">
            <g id="更多" transform="translate(310.000000, 221.000000)">
                <rect id="矩形" fill="#000000" opacity="0" x="0" y="0" width="32" height="32"></rect>
                <g id="编组-17" transform="translate(5.350000, 5.380000)">
                    <path d="M16.1735703,1.94375 C17.0142422,1.94375 17.8063203,2.2741875 18.4064531,2.87432031 C19.0065859,3.47445312 19.3370234,4.26896094 19.3370234,5.10720312 L19.3370234,7.775 L16.6838047,7.775 C15.8407031,7.775 15.0461953,7.44213281 14.4436328,6.83957031 C13.8410703,6.23700781 13.5082031,5.4425 13.5082031,4.59939844 L13.5082031,1.94375 L16.1735703,1.94375 M16.1735703,0 L12.5363281,0 C12.0017969,0 11.5644531,0.43734375 11.5644531,0.971875 L11.5644531,4.59939844 C11.5644531,7.41540625 13.8677969,9.71875 16.6838047,9.71875 L20.3113281,9.71875 C20.8458594,9.71875 21.2832031,9.28140625 21.2832031,8.746875 L21.2832031,5.10963281 C21.2832031,2.29848437 18.9847187,0 16.1735703,0 Z" id="形状" fill="#C0E8D8"></path>
                    <path d="M7.89180181,1.97295045 L7.89180181,7.89180181 L1.97295045,7.89180181 L1.97295045,5.20119063 C1.97295045,4.34542337 2.31081822,3.53651369 2.92243286,2.92243286 C3.5340475,2.31081822 4.34295718,1.97295045 5.20119063,1.97295045 L7.89180181,1.97295045 M8.63905679,0 L5.20119063,0 C2.34041247,0 0,2.34041247 0,5.20119063 L0,8.63905679 C0,9.31479232 0.552426127,9.86475226 1.22569547,9.86475226 L8.6365906,9.86475226 C9.31232613,9.86475226 9.8622943,9.31232613 9.8622943,8.63905679 L9.8622943,1.22569547 C9.86475226,0.552426127 9.31232613,0 8.63905679,0 Z M7.89180181,13.3914012 L7.89180181,19.3102525 L5.19379206,19.3102525 C4.33802481,19.3102525 3.53158131,18.9723848 2.91996667,18.3632363 C2.31081822,17.7516217 1.97295045,16.942712 1.97295045,16.0894109 L1.97295045,13.3914012 L7.89180181,13.3914012 M8.87827703,11.4184507 L0.986475226,11.4184507 C0.443913852,11.4184507 0,11.8623646 0,12.404926 L0,16.0894109 C0,18.9452567 2.33794629,21.283203 5.19379206,21.283203 L8.87827703,21.283203 C9.42083841,21.283203 9.86475226,20.8392891 9.86475226,20.2967278 L9.86475226,12.404926 C9.86475226,11.8623646 9.42083841,11.4184507 8.87827703,11.4184507 Z M19.3102525,13.3914012 L19.3102525,16.1042081 C19.3102525,16.9550429 18.974851,17.7590203 18.3657025,18.3681687 C17.7590203,18.974851 16.9550429,19.3102525 16.1042081,19.3102525 L13.3914012,19.3102525 L13.3914012,13.3914012 L19.3102525,13.3914012 M20.2967278,11.4184507 L12.404926,11.4184507 C11.8623646,11.4184507 11.4184507,11.8623646 11.4184507,12.404926 L11.4184507,20.2967278 C11.4184507,20.8392891 11.8623646,21.283203 12.404926,21.283203 L16.1042081,21.283203 C18.9526553,21.283203 21.283203,18.9526553 21.283203,16.1042081 L21.283203,12.404926 C21.283203,11.8623646 20.8392891,11.4184507 20.2967278,11.4184507 Z" id="形状" fill="#2C2C2C"></path>
                </g>
            </g>
        </g>
    </g>
</svg>