<?xml version="1.0" encoding="UTF-8"?>
<svg width="32px" height="32px" viewBox="0 0 32 32" version="1.1" xmlns="http://www.w3.org/2000/svg" xmlns:xlink="http://www.w3.org/1999/xlink">
    <title>编组 29</title>
    <g id="页面-1" stroke="none" stroke-width="1" fill="none" fill-rule="evenodd">
        <g id="所有应用" transform="translate(-172.000000, -609.000000)">
            <g id="编组-29" transform="translate(172.000000, 609.000000)">
                <g id="编组-3" transform="translate(5.279144, 3.349440)">
                    <g id="编组" transform="translate(5.340639, 6.477957)" fill="#12A86D" fill-rule="nonzero">
                        <path d="M11.2746545,7.41291089 L10.9953193,4.31074595 C10.9293456,3.57099892 10.3959417,2.98846569 9.6997092,2.83686668 L9.56776191,1.33210612 C9.50038457,0.572707375 8.8757405,0 8.11353436,0 L3.12620764,0 C2.3640015,0 1.73935743,0.572707375 1.67198009,1.33210612 L1.5400328,2.83546298 C0.832570754,2.98706199 0.280918798,3.59486173 0.227578405,4.34162723 L0.00439097216,7.44379217 C-0.0292976969,7.90280029 0.132127176,8.35900102 0.445151059,8.69588771 C0.758174943,9.0327744 1.20314611,9.22648425 1.66355792,9.22648425 L1.76602763,9.22648425 L1.76602763,9.54512291 C1.76602763,10.0097458 2.14362146,10.3873396 2.60824435,10.3873396 C3.07286725,10.3873396 3.45046108,10.0097458 3.45046108,9.54512291 L3.45046108,9.22648425 L7.81595112,9.22648425 L7.81595112,9.54512291 C7.81595112,10.0097458 8.19354495,10.3873396 8.65816784,10.3873396 C9.12279074,10.3873396 9.50038457,10.0097458 9.50038457,9.54512291 L9.50038457,9.22648425 L9.61829491,9.22648425 C10.0843215,9.22648425 10.5321001,9.02856332 10.8465276,8.68465815 C11.1609552,8.34075299 11.3167653,7.87753379 11.2746545,7.41291089 L11.2746545,7.41291089 Z M3.33255074,1.68443345 L7.90719126,1.68443345 L8.00544988,2.79756323 L3.23429212,2.79756323 L3.33255074,1.68443345 L3.33255074,1.68443345 Z M1.68601704,7.54205079 L1.90639708,4.48059299 L9.31930798,4.48059299 L9.59443211,7.54205079 L1.68601704,7.54205079 Z" id="形状"></path>
                        <path d="M3.48274606,5.12488879 C3.02514163,5.12488879 2.65316258,5.51826765 2.65316258,6.00219788 C2.65316258,6.4861281 3.02514163,6.87950697 3.48274606,6.87950697 C3.94035048,6.87950697 4.31232953,6.4861281 4.31232953,6.00219788 C4.31232953,5.5167832 3.94175417,5.12488879 3.48274606,5.12488879 Z M7.76261072,5.12488879 C7.3050063,5.12488879 6.93302725,5.51826765 6.93302725,6.00219788 C6.93302725,6.4861281 7.3050063,6.87950697 7.76261072,6.87950697 C8.22021515,6.87950697 8.5921942,6.4861281 8.5921942,6.00219788 C8.5921942,5.5167832 8.22021515,5.12488879 7.76261072,5.12488879 Z" id="形状"></path>
                    </g>
                    <path d="M18.6991526,18.5647672 C16.2545097,21.6060156 13.6379289,23.4569212 10.8494101,24.117484 C3.72206709,22.430525 0.105597046,16.5579017 0,6.49961401 C2.6931817,6.03772034 4.06552202,4.61750464 4.11702099,2.2389669 C8.46093293,0.746322301 10.6328889,0 10.6328889,0 C15.1950533,1.73818523 17.4761356,2.60727785 17.4761356,2.60727785 C17.6674596,4.94716873 18.9409395,6.19657768 21.2965752,6.35550469 C21.6750337,8.55446891 21.3609393,11.373207 20.3542921,14.811719" id="路径-56" stroke="#333333" stroke-width="2.6" stroke-linecap="round" stroke-linejoin="round"></path>
                </g>
                <rect id="矩形备份-14" fill="#D8D8D8" opacity="0" x="0" y="0" width="32" height="32"></rect>
            </g>
        </g>
    </g>
</svg>