<?xml version="1.0" encoding="UTF-8"?>
<svg width="32px" height="32px" viewBox="0 0 32 32" version="1.1" xmlns="http://www.w3.org/2000/svg" xmlns:xlink="http://www.w3.org/1999/xlink">
    <title>公告备份</title>
    <g id="页面-1" stroke="none" stroke-width="1" fill="none" fill-rule="evenodd">
        <g id="所有应用" transform="translate(-99.000000, -683.000000)" fill-rule="nonzero">
            <g id="公告备份" transform="translate(99.000000, 683.000000)">
                <rect id="矩形" fill="#000000" opacity="0" x="0" y="0" width="32" height="32"></rect>
                <path d="M10.25,16 L21.75,16 C22.4403559,16 23,16.5596441 23,17.25 C23,17.9403559 22.4403559,18.5 21.75,18.5 L10.25,18.5 C9.55964406,18.5 9,17.9403559 9,17.25 L9,17.25 L9,17.25 C9,16.5596441 9.55964406,16 10.25,16 Z" id="路径" fill="#12A86D"></path>
                <path d="M4,26.5 L4,12.5 C4,11.1192881 5.11928813,10 6.5,10 L25.5,10 C26.8807119,10 28,11.1192881 28,12.5 L28,26.5 C28,27.8807119 26.8807119,29 25.5,29 L6.5,29 C5.11928813,29 4,27.8807119 4,26.5 L4,26.5 Z M24,26.5 C24.8284271,26.5 25.5,25.8284271 25.5,25 L25.5,14 C25.5,13.1715729 24.8284271,12.5 24,12.5 L8,12.5 C7.17157288,12.5 6.5,13.1715729 6.5,14 L6.5,25 C6.5,25.8284271 7.17157288,26.5 8,26.5 L24,26.5 L24,26.5 Z" id="形状" fill="#333333"></path>
                <path d="M15.75,20.5 C16.4403559,20.5 17,21.0596441 17,21.75 C17,22.4403559 16.4403559,23 15.75,23 L10.25,23 C9.55964406,23 9,22.4403559 9,21.75 L9,21.75 L9,21.75 C9,21.0596441 9.55964406,20.5 10.25,20.5 L15.75,20.5 Z" id="路径" fill="#12A86D"></path>
                <path d="M9.0455,9.8625 L15.0555,3.852 C15.5437197,3.36378028 16.3352803,3.36378028 16.8235,3.852 C17.3117197,4.34021972 17.3117197,5.13178028 16.8235,5.62 L10.813,11.6305 C10.3241609,12.1149412 9.53568732,12.113104 9.04911103,11.6263901 C8.56253473,11.1396761 8.56092057,10.3512021 9.0455,9.8625 L9.0455,9.8625 Z" id="路径" fill="#333333"></path>
                <path d="M23.3455,9.8625 L17.335,3.85 C16.8467803,3.36178028 16.0552197,3.36178028 15.567,3.85 C15.0787803,4.33821972 15.0787803,5.12978028 15.567,5.618 L21.5775,11.6285 C21.8896805,11.9600089 22.3574375,12.095528 22.7984836,11.982245 C23.2395298,11.8689619 23.5840806,11.5248009 23.6978628,11.0838833 C23.8116449,10.6429656 23.6766553,10.1750555 23.3455,9.8625 L23.3455,9.8625 Z" id="路径" fill="#333333"></path>
            </g>
        </g>
    </g>
</svg>