<?xml version="1.0" encoding="UTF-8"?>
<svg width="32px" height="32px" viewBox="0 0 32 32" version="1.1" xmlns="http://www.w3.org/2000/svg" xmlns:xlink="http://www.w3.org/1999/xlink">
    <title>编组 26</title>
    <g id="页面-1" stroke="none" stroke-width="1" fill="none" fill-rule="evenodd">
        <g id="所有应用" transform="translate(-99.000000, -461.000000)">
            <g id="编组-26" transform="translate(99.000000, 461.000000)">
                <g id="编组-7" transform="translate(4.000000, 4.000000)" fill-rule="nonzero">
                    <g id="地图加油站">
                        <rect id="矩形" fill="#000000" opacity="0" x="0" y="0" width="24" height="24"></rect>
                        <path d="M23.2442108,2.99502002 L20.5936884,0.36090225 C20.3523057,0.119519578 20.0382739,0 19.7265856,0 C19.4125537,0 19.0985219,0.119519578 18.8594827,0.36090225 C18.3790609,0.841324078 18.3790609,1.61702958 18.8594827,2.09745143 L20.5772837,3.81993947 L19.3070953,5.14402891 C18.892292,5.57054977 18.892292,6.25485795 19.3070953,6.67903526 C19.5086381,6.89463921 19.7804866,7.00009765 20.0499915,7.00009765 L20.0617091,7.00009765 L21.4982876,6.99775413 L21.4982876,18.234938 C21.4982876,18.6520848 21.1608205,19.0012694 20.7460173,19.0012694 L20.7319561,19.0012694 C20.3241835,18.9942388 19.9960905,18.6614588 19.9960905,18.2513426 L19.9960905,11.2489015 C19.9960905,9.4537643 18.5407639,8.00078119 16.7479702,8.00078116 C16.333167,8.00078116 15.9980434,7.66331412 15.9980434,7.25085441 L15.9980434,2.00136705 C15.9980434,0.897568594 15.1028183,0.00234351563 13.9990199,0.00234351563 L3.50004518,0.00234351563 C2.39624674,0.00234351562 1.50102166,0.897568594 1.50102166,2.00136705 L1.50102166,21.2721414 C1.50102166,21.3986915 1.39790674,21.50415 1.27135659,21.50415 C0.936233062,21.50415 0.626888273,21.6353872 0.397223203,21.8509911 C0.165214594,22.061908 0.0175727812,22.3618787 0.001168125,22.6970022 C-0.0292976484,23.4117762 0.540177984,24 1.25026488,24 L16.2323955,24 C16.9190472,24 17.4932099,23.4516161 17.5002405,22.7649644 C17.507271,22.0665951 16.9471695,21.5018065 16.2511437,21.5018065 C16.1105325,21.5018065 15.9980434,21.3893175 15.9980434,21.2487062 L15.9980434,11.2535885 C15.9980434,10.8387853 16.333167,10.5036618 16.7479702,10.5036618 C16.9542001,10.5036618 17.1440253,10.5880285 17.2799495,10.7239527 C17.4158737,10.859877 17.5002405,11.0473586 17.5002405,11.255932 L17.5002405,18.2536862 C17.5002405,20.0488234 18.9555671,21.50415 20.7483608,21.50415 C22.543498,21.50415 23.9988246,20.0464798 23.9988246,18.2536862 L23.9988246,4.79015721 C23.9988246,4.08475734 23.708228,3.44966311 23.2442108,2.99502002 Z M4.12576533,4.1245972 C4.12576533,3.29499073 4.79835591,2.62474369 5.62561887,2.62474369 L11.9999964,2.62474369 C12.8272593,2.62474369 13.4998499,3.29499073 13.4998499,4.1245972 L13.4998499,8.24919441 C13.4998499,9.07645737 12.8272593,9.74904795 11.9999964,9.74904795 L5.62561887,9.74904795 C4.79835591,9.74904795 4.12576533,9.07645737 4.12576533,8.24919441 L4.12576533,4.1245972 Z M22.4989711,5.49555708 L21.4936005,5.49790059 L21.045988,5.49790059 L21.6599905,4.85811933 L22.3021153,4.1902158 C22.431009,4.3659799 22.4989711,4.57220974 22.4989711,4.79015721 L22.4989711,5.49555708 L22.4989711,5.49555708 Z" id="形状" fill="#999999"></path>
                    </g>
                    <path d="M23.2442108,2.99502002 L20.5936884,0.36090225 C20.3523057,0.119519578 20.0382739,0 19.7265856,0 C19.4125537,0 19.0985219,0.119519578 18.8594827,0.36090225 C18.3790609,0.841324078 18.3790609,1.61702958 18.8594827,2.09745143 L20.5772837,3.81993947 L19.3070953,5.14402891 C18.892292,5.57054977 18.892292,6.25485795 19.3070953,6.67903526 C19.5086381,6.89463921 19.7804866,7.00009765 20.0499915,7.00009765 L20.0617091,7.00009765 L21.4982876,6.99775413 L21.4982876,18.234938 C21.4982876,18.6520848 21.1608205,19.0012694 20.7460173,19.0012694 L20.7319561,19.0012694 C20.3241835,18.9942388 19.9960905,18.6614588 19.9960905,18.2513426 L19.9960905,11.2489015 C19.9960905,9.4537643 18.5407639,8.00078119 16.7479702,8.00078116 C16.333167,8.00078116 15.9980434,7.66331412 15.9980434,7.25085441 L15.9980434,11.2535885 C15.9980434,10.8387853 16.333167,10.5036618 16.7479702,10.5036618 C16.9542001,10.5036618 17.1440253,10.5880285 17.2799495,10.7239527 C17.4158737,10.859877 17.5002405,11.0473586 17.5002405,11.255932 L17.5002405,18.2536862 C17.5002405,20.0488234 18.9555671,21.50415 20.7483608,21.50415 C22.543498,21.50415 23.9988246,20.0464798 23.9988246,18.2536862 L23.9988246,4.79015721 C23.9988246,4.08475734 23.708228,3.44966311 23.2442108,2.99502002 Z" id="路径" fill="#999999"></path>
                    <path d="M4.12576533,4.1245972 C4.12576533,3.29499073 4.79835591,2.62474369 5.62561887,2.62474369 L11.9999964,2.62474369 C12.8272593,2.62474369 13.4998499,3.29499073 13.4998499,4.1245972 L13.4998499,8.24919441 C13.4998499,9.07645737 12.8272593,9.74904795 11.9999964,9.74904795 L5.62561887,9.74904795 C4.79835591,9.74904795 4.12576533,9.07645737 4.12576533,8.24919441 L4.12576533,4.1245972 Z" id="路径" fill-opacity="0.369319035" fill="#FFFFFF"></path>
                    <g id="人民币" transform="translate(2.400000, 10.800000)">
                        <rect id="矩形" fill="#000000" opacity="0" x="0" y="0" width="12" height="12"></rect>
                        <path d="M5.244,8.964 L2.928,8.964 C2.712,8.948 2.546,8.858 2.43,8.694 C2.314,8.53 2.244,8.348 2.22,8.148 C2.244,7.948 2.314,7.784 2.43,7.656 C2.546,7.528 2.712,7.456 2.928,7.44 L5.244,7.44 L5.244,6.684 L2.928,6.672 C2.712,6.656 2.546,6.58 2.43,6.444 C2.314,6.308 2.244,6.136 2.22,5.928 C2.244,5.728 2.314,5.564 2.43,5.436 C2.546,5.308 2.712,5.236 2.928,5.22 L4.656,5.22 L3.048,2.388 C2.968,2.292 2.892,2.17 2.82,2.022 C2.748,1.874 2.716,1.712 2.724,1.536 C2.764,1.312 2.844,1.13 2.964,0.99 C3.084,0.85 3.308,0.76 3.636,0.72 C3.828,0.736 4,0.802 4.152,0.918 C4.304,1.034 4.428,1.16 4.524,1.296 L6.348,4.632 L8.352,1.272 C8.448,1.136 8.572,1.016 8.724,0.912 C8.876,0.808 9.048,0.744 9.24,0.72 C9.36,0.728 9.47,0.744 9.57,0.768 C9.67,0.792 9.758,0.832 9.834,0.888 C9.91,0.944 9.974,1.024 10.026,1.128 C10.078,1.232 10.116,1.368 10.14,1.536 C10.14,1.768 10.06,1.988 9.9,2.196 L8.04,5.22 L9.804,5.22 C10.012,5.236 10.176,5.308 10.296,5.436 C10.416,5.564 10.484,5.728 10.5,5.928 C10.484,6.136 10.414,6.312 10.29,6.456 C10.166,6.6 10,6.68 9.792,6.696 L7.5,6.708 L7.5,7.44 L9.804,7.44 C10.012,7.456 10.176,7.536 10.296,7.68 C10.416,7.824 10.484,7.996 10.5,8.196 C10.484,8.404 10.416,8.578 10.296,8.718 C10.176,8.858 10.012,8.936 9.804,8.952 L7.5,8.94 L7.5,10.212 C7.468,10.892 7.096,11.232 6.384,11.232 C6.032,11.232 5.758,11.148 5.562,10.98 C5.366,10.812 5.26,10.556 5.244,10.212 L5.244,8.964 L5.244,8.964 Z" id="路径" fill-opacity="0.728472943" fill="#FFFFFF"></path>
                    </g>
                </g>
                <rect id="矩形备份-11" fill="#D8D8D8" opacity="0" x="0" y="0" width="32" height="32"></rect>
            </g>
        </g>
    </g>
</svg>