<?xml version="1.0" encoding="UTF-8"?>
<svg width="32px" height="32px" viewBox="0 0 32 32" version="1.1" xmlns="http://www.w3.org/2000/svg" xmlns:xlink="http://www.w3.org/1999/xlink">
    <title>编组 35</title>
    <g id="页面-1" stroke="none" stroke-width="1" fill="none" fill-rule="evenodd">
        <g id="所有应用" transform="translate(-173.000000, -828.000000)">
            <g id="编组-35" transform="translate(173.000000, 828.000000)">
                <g id="编组-19" transform="translate(2.000000, 2.000000)" fill-rule="nonzero">
                    <rect id="矩形" fill="#000000" opacity="0" x="0" y="0" width="27" height="27"></rect>
                    <path d="M17.0014169,0.230071644 C19.1417568,0.685840616 21.135832,1.83633752 22.6191997,3.4809741 C23.9956113,4.99614859 24.9262204,6.92092243 25.3040708,8.95113767 C25.5819737,10.4332447 25.555768,11.9739997 25.2285007,13.4455002 C24.8616202,15.1082303 24.1107948,16.6779972 23.0646975,18.0031899 C22.7709493,18.3887686 22.4330169,18.7341049 22.0926468,19.0756976 C21.5432401,18.8554561 20.9868248,18.6545559 20.4322379,18.4492883 C20.0242939,18.2947556 19.6155286,18.1426926 19.2060686,17.9927111 C21.6670487,16.5422075 23.3181818,13.8639252 23.3181818,10.8 C23.3181818,6.19093272 19.5817945,2.45454545 14.9727273,2.45454545 C10.36366,2.45454545 6.62727273,6.19093272 6.62727273,10.8 C6.62727273,15.2719647 10.1446789,18.9223951 14.5638114,19.1356116 C14.4966914,19.4805508 14.5167409,19.8427 14.600543,20.1843923 C14.7294387,20.714407 15.0146549,21.1826543 15.242584,21.6711787 C14.0547929,21.6059797 12.8682206,21.4291002 11.7270514,21.0797085 C11.2510817,20.9702117 10.8083263,20.7521538 10.366485,20.5468862 C9.53612824,20.1129542 8.74751781,19.5898025 8.0387435,18.9683845 C7.23215469,18.2649217 6.52155211,17.4469709 5.92796126,16.5488471 C5.6037412,16.072177 5.33040908,15.5605677 5.0902912,15.0349204 C4.22611068,12.8209625 4.09294887,10.3184446 4.71183132,8.01994644 C5.29049099,5.83780818 6.53922573,3.84565166 8.24991316,2.4128338 C9.03639056,1.75054937 9.91672115,1.20649661 10.8528151,0.796897239 C12.7865562,-0.0132547151 14.9573679,-0.212283188 17.0014169,0.230071644 Z" id="形状结合" fill="#333333"></path>
                    <path d="M1.75667524,15.9973073 C1.95931277,15.8435126 2.21070521,15.7567886 2.46301179,15.75114 C2.76742517,15.7489897 3.06269701,15.8541191 3.33420082,15.9873247 C3.59351594,16.1121074 3.7882308,16.332037 3.99879098,16.5238905 C4.90197543,17.4697437 5.80424571,18.4168447 6.74155857,19.3271349 C7.01336711,19.6144471 7.32570316,19.8568376 7.62310803,20.1154499 C8.43243929,20.801443 9.30210473,21.4278524 10.2634903,21.8708311 C10.8214292,22.1238281 11.4049643,22.3138099 11.9973363,22.4629252 C13.3929452,22.8088854 14.8315193,22.9399073 16.2646085,22.9673595 C16.5096019,22.9676714 16.7576424,22.9891965 16.9989791,22.9336681 C17.1543854,22.8993529 17.3183237,22.8397691 17.4188807,22.7059396 C17.5087725,22.58802 17.5075536,22.4251785 17.4676356,22.2879175 C17.4271081,22.1575195 17.3689069,22.0277454 17.2713971,21.9316627 C17.0980125,21.7647658 16.9572327,21.5672971 16.7999982,21.3857382 C16.474864,20.9858095 16.121391,20.6011667 15.8861486,20.1354151 C15.7603001,19.9129899 15.6542582,19.6656081 15.6640091,19.4035643 C15.6697988,19.1299781 15.8099691,18.8801007 15.987315,18.6838798 C16.1274854,18.5332046 16.2774067,18.3750425 16.4794348,18.3173305 C16.6784157,18.248388 16.8978127,18.2830152 17.081253,18.3825295 C17.8418294,18.6857516 18.6179464,18.9471714 19.3830935,19.2379152 C19.9760749,19.4746904 20.5684469,19.7124016 21.1632566,19.9438736 C22.3391638,20.4068176 23.5254313,20.8426213 24.6949394,21.322411 C25.056335,21.4780774 25.4262628,21.6162743 25.7727273,21.8053202 L25.7727273,26.998466 L12.668935,26.998466 C12.1600558,27.0065769 11.6493482,26.984116 11.1474775,26.8927127 C10.0599386,26.7033549 9.01993577,26.290012 8.04758034,25.7637408 C7.05694182,25.2253033 6.13120824,24.5655145 5.27616925,23.8233691 C4.44916434,23.1043085 3.68523607,22.3069468 3.01485624,21.4331556 C2.44869003,20.6903863 1.94102968,19.8917768 1.58816612,19.0189215 C1.36297945,18.4505361 1.19690809,17.8403484 1.23195067,17.221738 C1.25663283,16.7678408 1.42818912,16.3111359 1.75667524,15.9973073" id="路径" fill="#12A86D"></path>
                    <g id="人民币" transform="translate(8.590909, 4.909091)">
                        <rect id="矩形" fill="#000000" opacity="0" x="0" y="0" width="12.2727273" height="12.2727273"></rect>
                        <path d="M5.36318182,9.16772727 L2.99454545,9.16772727 C2.77363636,9.15136364 2.60386364,9.05931818 2.48522727,8.89159091 C2.36659091,8.72386364 2.295,8.53772727 2.27045455,8.33318182 C2.295,8.12863636 2.36659091,7.96090909 2.48522727,7.83 C2.60386364,7.69909091 2.77363636,7.62545455 2.99454545,7.60909091 L5.36318182,7.60909091 L5.36318182,6.83590909 L2.99454545,6.82363636 C2.77363636,6.80727273 2.60386364,6.72954545 2.48522727,6.59045455 C2.36659091,6.45136364 2.295,6.27545455 2.27045455,6.06272727 C2.295,5.85818182 2.36659091,5.69045455 2.48522727,5.55954545 C2.60386364,5.42863636 2.77363636,5.355 2.99454545,5.33863636 L4.76181818,5.33863636 L3.11727273,2.44227273 C3.03545455,2.34409091 2.95772727,2.21931818 2.88409091,2.06795455 C2.81045455,1.91659091 2.77772727,1.75090909 2.78590909,1.57090909 C2.82681818,1.34181818 2.90863636,1.15568182 3.03136364,1.0125 C3.15409091,0.869318182 3.38318182,0.777272727 3.71863636,0.736363636 C3.915,0.752727273 4.09090909,0.820227273 4.24636364,0.938863636 C4.40181818,1.0575 4.52863636,1.18636364 4.62681818,1.32545455 L6.49227273,4.73727273 L8.54181818,1.30090909 C8.64,1.16181818 8.76681818,1.03909091 8.92227273,0.932727273 C9.07772727,0.826363636 9.25363636,0.760909091 9.45,0.736363636 C9.57272727,0.744545455 9.68522727,0.760909091 9.7875,0.785454545 C9.88977273,0.81 9.97977273,0.850909091 10.0575,0.908181818 C10.1352273,0.965454545 10.2006818,1.04727273 10.2538636,1.15363636 C10.3070455,1.26 10.3459091,1.39909091 10.3704545,1.57090909 C10.3704545,1.80818182 10.2886364,2.03318182 10.125,2.24590909 L8.22272727,5.33863636 L10.0268182,5.33863636 C10.2395455,5.355 10.4072727,5.42863636 10.53,5.55954545 C10.6527273,5.69045455 10.7222727,5.85818182 10.7386364,6.06272727 C10.7222727,6.27545455 10.6506818,6.45545455 10.5238636,6.60272727 C10.3970455,6.75 10.2272727,6.83181818 10.0145455,6.84818182 L7.67045455,6.86045455 L7.67045455,7.60909091 L10.0268182,7.60909091 C10.2395455,7.62545455 10.4072727,7.70727273 10.53,7.85454545 C10.6527273,8.00181818 10.7222727,8.17772727 10.7386364,8.38227273 C10.7222727,8.595 10.6527273,8.77295455 10.53,8.91613636 C10.4072727,9.05931818 10.2395455,9.13909091 10.0268182,9.15545455 L7.67045455,9.14318182 L7.67045455,10.4440909 C7.63772727,11.1395455 7.25727273,11.4872727 6.52909091,11.4872727 C6.16909091,11.4872727 5.88886364,11.4013636 5.68840909,11.2295455 C5.48795455,11.0577273 5.37954545,10.7959091 5.36318182,10.4440909 L5.36318182,9.16772727 L5.36318182,9.16772727 Z" id="路径" fill="#434343"></path>
                    </g>
                </g>
                <rect id="矩形备份-22" fill="#D8D8D8" opacity="0" x="0" y="0" width="32" height="32"></rect>
            </g>
        </g>
    </g>
</svg>